<svg width="31" height="31" viewBox="0 0 31 31" fill="none" xmlns="http://www.w3.org/2000/svg">
<path d="M15.5459 15.2287C14.1654 15.2287 12.8159 14.8193 11.6681 14.0524C10.5203 13.2854 9.62564 12.1953 9.09735 10.9199C8.56906 9.64453 8.43084 8.24112 8.70016 6.88717C8.96948 5.53322 9.63424 4.28953 10.6104 3.31339C11.5865 2.33724 12.8302 1.67248 14.1842 1.40316C15.5381 1.13384 16.9415 1.27207 18.2169 1.80035C19.4923 2.32864 20.5824 3.22326 21.3494 4.37109C22.1163 5.51891 22.5257 6.86839 22.5257 8.24887C22.5223 10.099 21.7859 11.8724 20.4776 13.1806C19.1694 14.4889 17.396 15.2253 15.5459 15.2287ZM15.5459 2.5381C14.4164 2.5381 13.3123 2.87304 12.3731 3.50054C11.434 4.12805 10.702 5.01995 10.2698 6.06345C9.83757 7.10696 9.72448 8.2552 9.94483 9.36298C10.1652 10.4708 10.7091 11.4883 11.5077 12.287C12.3064 13.0857 13.324 13.6295 14.4317 13.8499C15.5395 14.0703 16.6878 13.9572 17.7313 13.5249C18.7748 13.0927 19.6667 12.3607 20.2942 11.4216C20.9217 10.4825 21.2566 9.37835 21.2566 8.24887C21.2533 6.73531 20.6505 5.2847 19.5803 4.21445C18.51 3.1442 17.0594 2.54146 15.5459 2.5381Z" fill="white"/>
<path d="M4.1244 25.381C3.95611 25.381 3.79471 25.3141 3.67572 25.1952C3.55672 25.0762 3.48987 24.9148 3.48987 24.7465C3.49323 21.8866 4.63079 19.1448 6.65302 17.1226C8.67524 15.1004 11.417 13.9628 14.2769 13.9595H16.815C16.9833 13.9595 17.1447 14.0263 17.2637 14.1453C17.3827 14.2643 17.4495 14.4257 17.4495 14.594C17.4495 14.7623 17.3827 14.9237 17.2637 15.0427C17.1447 15.1617 16.9833 15.2285 16.815 15.2285H14.2769C11.7526 15.2285 9.33163 16.2313 7.54667 18.0163C5.76171 19.8012 4.75893 22.2222 4.75893 24.7465C4.75893 24.9148 4.69207 25.0762 4.57308 25.1952C4.45408 25.3141 4.29269 25.381 4.1244 25.381Z" fill="white"/>
<path d="M21.2567 29.1881C21.0884 29.1881 20.927 29.1213 20.808 29.0023C20.689 28.8833 20.6222 28.7219 20.6222 28.5536V18.4011C20.6222 18.2328 20.689 18.0714 20.808 17.9525C20.927 17.8335 21.0884 17.7666 21.2567 17.7666C21.425 17.7666 21.5864 17.8335 21.7054 17.9525C21.8244 18.0714 21.8913 18.2328 21.8913 18.4011V28.5536C21.8913 28.7219 21.8244 28.8833 21.7054 29.0023C21.5864 29.1213 21.425 29.1881 21.2567 29.1881Z" fill="white"/>
<path d="M26.3329 24.1123H16.1804C16.0121 24.1123 15.8507 24.0455 15.7317 23.9265C15.6127 23.8075 15.5459 23.6461 15.5459 23.4778C15.5459 23.3095 15.6127 23.1481 15.7317 23.0291C15.8507 22.9101 16.0121 22.8433 16.1804 22.8433H26.3329C26.5012 22.8433 26.6626 22.9101 26.7816 23.0291C26.9006 23.1481 26.9674 23.3095 26.9674 23.4778C26.9674 23.6461 26.9006 23.8075 26.7816 23.9265C26.6626 24.0455 26.5012 24.1123 26.3329 24.1123Z" fill="white"/>
</svg>
