<svg width="37" height="37" viewBox="0 0 37 37" fill="none" xmlns="http://www.w3.org/2000/svg">
<path d="M18.2526 33.9027C15.21 33.9027 12.2358 33.0045 9.70596 31.3217C7.17614 29.6389 5.20438 27.2471 4.04003 24.4487C2.87568 21.6503 2.57104 18.5711 3.16462 15.6003C3.7582 12.6296 5.22334 9.90078 7.37478 7.759C9.52622 5.61721 12.2673 4.15863 15.2514 3.56771C18.2356 2.97679 21.3287 3.28007 24.1397 4.4392C26.9507 5.59833 29.3533 7.56124 31.0436 10.0797C32.734 12.5982 33.6362 15.5591 33.6362 18.5881C33.6323 22.6486 32.0102 26.5416 29.1261 29.4128C26.242 32.284 22.3314 33.8988 18.2526 33.9027ZM18.2526 4.75886C15.5052 4.75886 12.8194 5.56993 10.5349 7.0895C8.25048 8.60908 6.46997 10.7689 5.41856 13.2959C4.36714 15.8228 4.09205 18.6034 4.62805 21.286C5.16406 23.9686 6.4871 26.4328 8.42986 28.3668C10.3726 30.3009 12.8478 31.618 15.5425 32.1516C18.2372 32.6852 21.0303 32.4113 23.5687 31.3646C26.107 30.3179 28.2766 28.5454 29.803 26.2712C31.3294 23.997 32.1441 21.3232 32.1441 18.5881C32.1362 14.9227 30.6702 11.4098 28.0667 8.81801C25.4632 6.22623 21.9345 4.76671 18.2526 4.75886Z" fill="#95E1D3"/>
<path d="M12.4484 24.5298C11.6368 24.5298 10.8435 24.2902 10.1687 23.8413C9.49394 23.3925 8.96801 22.7545 8.65744 22.0081C8.34687 21.2617 8.26561 20.4403 8.42394 19.648C8.58226 18.8556 8.97307 18.1277 9.54692 17.5564C10.1208 16.9851 10.8519 16.5961 11.6479 16.4385C12.4438 16.2809 13.2689 16.3618 14.0186 16.6709C14.7684 16.9801 15.4093 17.5037 15.8601 18.1754C16.311 18.8472 16.5517 19.637 16.5517 20.4449C16.5517 20.9813 16.4455 21.5125 16.2393 22.0081C16.0331 22.5037 15.7309 22.954 15.3498 23.3333C14.9688 23.7127 14.5165 24.0135 14.0186 24.2188C13.5208 24.4241 12.9872 24.5298 12.4484 24.5298ZM12.4484 17.8454C11.9288 17.8456 11.4211 18.0001 10.9902 18.2892C10.5594 18.5782 10.2249 18.9887 10.0297 19.468C9.8344 19.9474 9.78723 20.4738 9.89418 20.98C10.0011 21.4861 10.2573 21.949 10.63 22.3094C11.0027 22.6698 11.4749 22.9114 11.9862 23.0031C12.4976 23.0949 13.0248 23.0327 13.5004 22.8245C13.9761 22.6163 14.3785 22.2716 14.6562 21.8345C14.934 21.3973 15.0744 20.8876 15.0596 20.3706C15.0557 19.6824 14.7793 19.0235 14.2904 18.5368C13.8016 18.0502 13.1397 17.775 12.4484 17.7711V17.8454Z" fill="#95E1D3"/>
<path d="M24.0569 24.5298C23.2454 24.5298 22.452 24.2902 21.7772 23.8413C21.1025 23.3925 20.5765 22.7545 20.266 22.0081C19.9554 21.2617 19.8741 20.4403 20.0325 19.648C20.1908 18.8556 20.5816 18.1277 21.1554 17.5564C21.7293 16.9851 22.4604 16.5961 23.2564 16.4385C24.0524 16.2809 24.8774 16.3618 25.6272 16.6709C26.3769 16.9801 27.0178 17.5037 27.4687 18.1754C27.9195 18.8472 28.1602 19.637 28.1602 20.4449C28.1602 21.5283 27.7279 22.5673 26.9584 23.3333C26.1889 24.0994 25.1452 24.5298 24.0569 24.5298ZM24.0569 17.8454C23.5405 17.8454 23.0356 17.9979 22.6062 18.2835C22.1768 18.5691 21.8421 18.9751 21.6445 19.4501C21.4469 19.9251 21.3951 20.4478 21.4959 20.952C21.5966 21.4563 21.8453 21.9194 22.2105 22.283C22.5757 22.6465 23.041 22.8941 23.5475 22.9944C24.054 23.0947 24.579 23.0432 25.0562 22.8465C25.5333 22.6497 25.9411 22.3166 26.228 21.8891C26.5149 21.4616 26.6681 20.959 26.6681 20.4449C26.6781 20.0973 26.6179 19.7513 26.4912 19.4273C26.3644 19.1033 26.1737 18.8079 25.9302 18.5586C25.6867 18.3093 25.3955 18.1111 25.0737 17.9759C24.7519 17.8406 24.4062 17.771 24.0569 17.7711V17.8454Z" fill="#95E1D3"/>
<path d="M3.95831 16.1519C3.78633 16.152 3.61961 16.0929 3.48638 15.9846C3.35314 15.8763 3.26158 15.7255 3.22718 15.5578C3.19155 15.3651 3.23226 15.1662 3.34076 15.0028C3.44926 14.8394 3.61711 14.7242 3.8091 14.6814C3.97324 14.6517 20.1178 11.1609 24.4598 5.21929C24.5175 5.14012 24.5903 5.07307 24.6741 5.02198C24.7579 4.9709 24.8509 4.93678 24.948 4.9216C25.045 4.90642 25.1441 4.91047 25.2396 4.93351C25.3351 4.95656 25.425 4.99815 25.5043 5.05589C25.6617 5.17424 25.7668 5.3488 25.7974 5.54278C25.828 5.73675 25.7818 5.93498 25.6684 6.09568C20.9832 12.4978 4.82374 15.9885 4.12245 16.1371L3.95831 16.1519Z" fill="#95E1D3"/>
<path d="M28.6973 13.6862C25.0008 13.5634 21.3588 12.7628 17.9542 11.3244C17.7721 11.2456 17.629 11.098 17.5562 10.9142C17.4835 10.7303 17.4871 10.5252 17.5662 10.344C17.6454 10.1628 17.7936 10.0203 17.9783 9.94785C18.163 9.87542 18.369 9.87899 18.551 9.95779C18.6256 9.95779 25.6236 13.0623 31.5025 11.9631C31.6981 11.9281 31.8997 11.9706 32.0642 12.0816C32.2287 12.1927 32.3431 12.3634 32.3828 12.5573C32.4177 12.7502 32.3745 12.9491 32.2627 13.1105C32.1509 13.2719 31.9795 13.3827 31.786 13.4188C30.7675 13.607 29.7331 13.6965 28.6973 13.6862Z" fill="#95E1D3"/>
<path d="M20.6997 21.1132H15.8056C15.6078 21.1132 15.418 21.035 15.2781 20.8957C15.1382 20.7564 15.0596 20.5675 15.0596 20.3705C15.0634 20.1747 15.1432 19.988 15.2823 19.8495C15.4214 19.7111 15.609 19.6316 15.8056 19.6278H20.6997C20.8964 19.6316 21.0839 19.7111 21.223 19.8495C21.3621 19.988 21.442 20.1747 21.4458 20.3705C21.4458 20.5675 21.3672 20.7564 21.2273 20.8957C21.0874 21.035 20.8976 21.1132 20.6997 21.1132Z" fill="#95E1D3"/>
<path d="M9.09111 21.1132H3.73446C3.53659 21.1132 3.34683 21.035 3.20692 20.8957C3.06701 20.7564 2.9884 20.5675 2.9884 20.3705C2.99222 20.1747 3.07205 19.988 3.21114 19.8495C3.35024 19.7111 3.53779 19.6316 3.73446 19.6278H9.09111C9.28898 19.6278 9.47874 19.7061 9.61865 19.8453C9.75856 19.9846 9.83717 20.1735 9.83717 20.3705C9.83717 20.5675 9.75856 20.7564 9.61865 20.8957C9.47874 21.035 9.28898 21.1132 9.09111 21.1132Z" fill="#95E1D3"/>
<path d="M32.7857 21.1132H27.4141C27.2163 21.1132 27.0265 21.035 26.8866 20.8957C26.7467 20.7564 26.6681 20.5675 26.6681 20.3705C26.6681 20.1735 26.7467 19.9846 26.8866 19.8453C27.0265 19.7061 27.2163 19.6278 27.4141 19.6278H32.7857C32.9836 19.6278 33.1733 19.7061 33.3133 19.8453C33.4532 19.9846 33.5318 20.1735 33.5318 20.3705C33.5318 20.5675 33.4532 20.7564 33.3133 20.8957C33.1733 21.035 32.9836 21.1132 32.7857 21.1132Z" fill="#95E1D3"/>
</svg>
