<svg width="28" height="28" viewBox="0 0 28 28" fill="none" xmlns="http://www.w3.org/2000/svg">
<path d="M15.1939 22.8988C13.655 22.9002 12.1383 22.5317 10.7716 21.8243C10.7055 21.7902 10.6468 21.7433 10.5988 21.6865C10.5508 21.6296 10.5145 21.5639 10.4919 21.493C10.4693 21.4221 10.4609 21.3474 10.4672 21.2733C10.4734 21.1991 10.4942 21.127 10.5284 21.0609C10.5626 20.9948 10.6094 20.9361 10.6663 20.8881C10.7231 20.8401 10.7889 20.8038 10.8598 20.7812C10.9307 20.7586 11.0053 20.7502 11.0794 20.7565C11.1536 20.7627 11.2258 20.7835 11.2919 20.8177C13.1224 21.749 15.2282 21.9864 17.2202 21.4862C19.2122 20.9859 20.9559 19.7817 22.1292 18.0961C23.3026 16.4104 23.8263 14.357 23.6038 12.3153C23.3812 10.2735 22.4274 8.38126 20.9184 6.98796C19.4094 5.59467 17.4472 4.79446 15.3942 4.73512C13.3412 4.67578 11.3361 5.36132 9.74916 6.66513C8.16222 7.96894 7.10066 9.80295 6.76054 11.8284C6.42042 13.8539 6.82472 15.9341 7.89875 17.6847C7.97452 17.8143 7.99681 17.9682 7.96092 18.1139C7.92502 18.2597 7.83375 18.3856 7.70648 18.4652C7.64271 18.5041 7.57185 18.5301 7.49799 18.5415C7.42413 18.553 7.34874 18.5497 7.27617 18.5318C7.2036 18.5139 7.13529 18.4818 7.0752 18.4374C7.0151 18.3929 6.96442 18.337 6.92606 18.2729C5.68487 16.2853 5.21235 13.9128 5.59732 11.6013C5.98228 9.28984 7.19822 7.19855 9.0166 5.72051C10.835 4.24247 13.1306 3.47946 15.472 3.57487C17.8133 3.67029 20.0392 4.61757 21.7313 6.23867C23.038 7.44984 23.9825 9.00031 24.4592 10.717C24.936 12.4338 24.9263 14.2492 24.4313 15.9608C23.9362 17.6723 22.9753 19.2126 21.6557 20.4098C20.3362 21.6069 18.7099 22.4139 16.9583 22.7405C16.3765 22.8487 15.7857 22.9018 15.1939 22.8988Z" fill="#95E1D3"/>
<path d="M6.4171 23.4871C6.19785 23.483 5.983 23.4249 5.79155 23.318C5.6001 23.211 5.43794 23.0586 5.31941 22.8741C5.20089 22.6896 5.12965 22.4787 5.112 22.2602C5.09435 22.0416 5.13082 21.822 5.21821 21.6209L6.93738 17.7528C7.00137 17.6157 7.11666 17.5092 7.25841 17.4563C7.40016 17.4034 7.55701 17.4083 7.69517 17.47C7.83146 17.5317 7.93774 17.6449 7.99074 17.7848C8.04373 17.9248 8.03913 18.08 7.97793 18.2165L6.24745 22.0846C6.22542 22.114 6.21352 22.1497 6.21352 22.1864C6.21352 22.2231 6.22542 22.2588 6.24745 22.2882C6.27215 22.3165 6.3046 22.3369 6.34078 22.347C6.37695 22.357 6.41528 22.3562 6.45103 22.3448L10.8055 20.7952C10.8752 20.7684 10.9496 20.756 11.0242 20.7586C11.0988 20.7613 11.1721 20.779 11.2397 20.8107C11.3073 20.8424 11.3678 20.8874 11.4176 20.9431C11.4674 20.9987 11.5054 21.0638 11.5294 21.1346C11.5803 21.2755 11.5732 21.431 11.5096 21.5667C11.4459 21.7025 11.331 21.8074 11.1901 21.8584L6.86952 23.4079C6.72479 23.4617 6.57147 23.4885 6.4171 23.4871Z" fill="#95E1D3"/>
</svg>
