<svg width="28" height="28" viewBox="0 0 28 28" fill="none" xmlns="http://www.w3.org/2000/svg">
<path d="M25.731 14.3865C25.7336 14.5093 25.6937 14.6292 25.6179 14.7258L19.827 22.4734C19.7743 22.5445 19.7063 22.6028 19.6279 22.6439C19.5496 22.685 19.463 22.7079 19.3746 22.7109H7.78148C7.69113 22.7096 7.6023 22.6875 7.52188 22.6463C7.44146 22.6051 7.37161 22.546 7.31775 22.4734L1.52686 14.7258C1.45514 14.6272 1.4165 14.5084 1.4165 14.3865C1.4165 14.2646 1.45514 14.1458 1.52686 14.0472L7.31775 6.29963C7.37218 6.22851 7.44243 6.17105 7.52291 6.13178C7.6034 6.09252 7.69193 6.07254 7.78148 6.07342H19.3746C19.4622 6.07427 19.5485 6.09509 19.6269 6.13429C19.7053 6.17348 19.7737 6.23003 19.827 6.29963L25.6179 14.0472C25.6921 14.1447 25.7318 14.264 25.731 14.3865ZM19.0918 21.5799L24.4642 14.3865L19.0918 7.20445L8.06424 7.20445L2.68051 14.3865L8.06424 21.5799H19.0918Z" fill="#95E1D3"/>
<path d="M19.318 14.3865C19.3206 14.5093 19.2807 14.6292 19.2049 14.7258L16.6148 18.1981C16.5616 18.2677 16.4931 18.3243 16.4148 18.3634C16.3364 18.4026 16.2501 18.4235 16.1624 18.4243H10.9823C10.8947 18.4235 10.8084 18.4026 10.73 18.3634C10.6516 18.3243 10.5832 18.2677 10.5299 18.1981L7.91719 14.7258C7.8401 14.6295 7.7981 14.5099 7.7981 14.3865C7.7981 14.2632 7.8401 14.1435 7.91719 14.0472L10.5073 10.5862C10.5587 10.5147 10.6267 10.4566 10.7055 10.4172C10.7843 10.3778 10.8716 10.3582 10.9597 10.36H16.1398C16.2279 10.3582 16.3152 10.3778 16.394 10.4172C16.4728 10.4566 16.5408 10.5147 16.5922 10.5862L19.2275 14.0472C19.2937 14.1475 19.3254 14.2666 19.318 14.3865ZM15.8344 17.2933L18.0965 14.3865L15.8344 11.4685H11.3103L9.04823 14.3865L11.3103 17.2933H15.8344Z" fill="#95E1D3"/>
</svg>
