<svg width="134" height="56" viewBox="0 0 134 56" fill="none" xmlns="http://www.w3.org/2000/svg">
<path d="M11.2 37.6335V29.1735L8.14 35.3335H6.34L3.28 29.1735V37.6335H0V23.4335H3.56L7.24 30.8535L10.94 23.4335H14.48V37.6335H11.2Z" fill="white"/>
<path d="M21.7712 37.8335C20.5712 37.8335 19.5513 37.5802 18.7113 37.0735C17.8846 36.5668 17.2513 35.9002 16.8113 35.0735C16.3713 34.2468 16.1513 33.3535 16.1513 32.3935C16.1513 31.4202 16.3713 30.5202 16.8113 29.6935C17.2513 28.8668 17.8912 28.2002 18.7312 27.6935C19.5712 27.1868 20.5846 26.9335 21.7712 26.9335C22.9579 26.9335 23.9713 27.1868 24.8113 27.6935C25.6513 28.2002 26.2913 28.8668 26.7313 29.6935C27.1713 30.5202 27.3913 31.4202 27.3913 32.3935C27.3913 33.3535 27.1713 34.2468 26.7313 35.0735C26.2913 35.9002 25.6513 36.5668 24.8113 37.0735C23.9713 37.5802 22.9579 37.8335 21.7712 37.8335ZM19.4313 32.3935C19.4313 33.2068 19.6513 33.8668 20.0913 34.3735C20.5446 34.8802 21.1046 35.1335 21.7712 35.1335C22.4246 35.1335 22.9712 34.8802 23.4112 34.3735C23.8646 33.8668 24.0913 33.2068 24.0913 32.3935C24.0913 31.5802 23.8646 30.9202 23.4112 30.4135C22.9712 29.9068 22.4246 29.6535 21.7712 29.6535C21.1046 29.6535 20.5446 29.9068 20.0913 30.4135C19.6513 30.9202 19.4313 31.5802 19.4313 32.3935Z" fill="white"/>
<path d="M35.2583 37.7335C34.325 37.7335 33.445 37.5602 32.6183 37.2135C31.8049 36.8535 31.0783 36.3535 30.4383 35.7135C29.8116 35.0602 29.3183 34.2935 28.9583 33.4135C28.6116 32.5202 28.4383 31.5268 28.4383 30.4335C28.4383 29.4468 28.6116 28.5268 28.9583 27.6735C29.3183 26.8202 29.8183 26.0668 30.4583 25.4135C31.1116 24.7602 31.865 24.2535 32.7183 23.8935C33.5849 23.5202 34.5183 23.3335 35.5183 23.3335C36.8249 23.3335 37.9716 23.6135 38.9583 24.1735C39.9583 24.7335 40.7049 25.4868 41.1983 26.4335L38.7583 28.2735C38.4383 27.6468 37.9716 27.1535 37.3583 26.7935C36.745 26.4335 36.0916 26.2535 35.3983 26.2535C34.6783 26.2535 34.0449 26.4468 33.4983 26.8335C32.9516 27.2068 32.5249 27.7202 32.2183 28.3735C31.9116 29.0268 31.7583 29.7535 31.7583 30.5535C31.7583 31.3668 31.9183 32.1002 32.2383 32.7535C32.5583 33.3935 32.9983 33.9002 33.5583 34.2735C34.1316 34.6335 34.7916 34.8135 35.5383 34.8135C36.8183 34.8135 37.9716 34.2268 38.9983 33.0535V32.5935H36.2383V30.2135H41.7183V37.6335H38.9983V36.2335C37.9183 37.2335 36.6716 37.7335 35.2583 37.7335Z" fill="white"/>
<path d="M48.6267 37.8335C47.4267 37.8335 46.4067 37.5802 45.5667 37.0735C44.7401 36.5668 44.1067 35.9002 43.6667 35.0735C43.2267 34.2468 43.0067 33.3535 43.0067 32.3935C43.0067 31.4202 43.2267 30.5202 43.6667 29.6935C44.1067 28.8668 44.7467 28.2002 45.5867 27.6935C46.4267 27.1868 47.4401 26.9335 48.6267 26.9335C49.8134 26.9335 50.8267 27.1868 51.6667 27.6935C52.5067 28.2002 53.1467 28.8668 53.5867 29.6935C54.0267 30.5202 54.2467 31.4202 54.2467 32.3935C54.2467 33.3535 54.0267 34.2468 53.5867 35.0735C53.1467 35.9002 52.5067 36.5668 51.6667 37.0735C50.8267 37.5802 49.8134 37.8335 48.6267 37.8335ZM46.2867 32.3935C46.2867 33.2068 46.5067 33.8668 46.9467 34.3735C47.4001 34.8802 47.9601 35.1335 48.6267 35.1335C49.2801 35.1335 49.8267 34.8802 50.2667 34.3735C50.7201 33.8668 50.9467 33.2068 50.9467 32.3935C50.9467 31.5802 50.7201 30.9202 50.2667 30.4135C49.8267 29.9068 49.2801 29.6535 48.6267 29.6535C47.9601 29.6535 47.4001 29.9068 46.9467 30.4135C46.5067 30.9202 46.2867 31.5802 46.2867 32.3935Z" fill="white"/>
</svg>
