<svg width="287" height="68" viewBox="0 0 287 68" fill="none" xmlns="http://www.w3.org/2000/svg">
<path d="M118.697 49.7297V34.7239L113.316 45.6501H110.15L104.768 34.7239V49.7297H99V24.5426H105.261L111.733 37.7037L118.24 24.5426H124.466V49.7297H118.697Z" fill="#C6CBCD"/>
<path d="M137.288 50.0844C135.178 50.0844 133.384 49.6351 131.907 48.7364C130.453 47.8377 129.339 46.6552 128.565 45.1889C127.792 43.7226 127.405 42.1381 127.405 40.4353C127.405 38.7089 127.792 37.1125 128.565 35.6462C129.339 34.1799 130.465 32.9974 131.942 32.0987C133.419 31.2 135.201 30.7507 137.288 30.7507C139.375 30.7507 141.157 31.2 142.635 32.0987C144.112 32.9974 145.238 34.1799 146.011 35.6462C146.785 37.1125 147.172 38.7089 147.172 40.4353C147.172 42.1381 146.785 43.7226 146.011 45.1889C145.238 46.6552 144.112 47.8377 142.635 48.7364C141.157 49.6351 139.375 50.0844 137.288 50.0844ZM133.173 40.4353C133.173 41.8779 133.56 43.0486 134.334 43.9473C135.131 44.846 136.116 45.2953 137.288 45.2953C138.437 45.2953 139.399 44.846 140.173 43.9473C140.97 43.0486 141.368 41.8779 141.368 40.4353C141.368 38.9927 140.97 37.822 140.173 36.9233C139.399 36.0246 138.437 35.5753 137.288 35.5753C136.116 35.5753 135.131 36.0246 134.334 36.9233C133.56 37.822 133.173 38.9927 133.173 40.4353Z" fill="#C6CBCD"/>
<path d="M161.008 49.9071C159.366 49.9071 157.819 49.5996 156.365 48.9847C154.934 48.3462 153.656 47.4593 152.531 46.3241C151.429 45.1653 150.561 43.8054 149.928 42.2445C149.318 40.66 149.013 38.8981 149.013 36.9588C149.013 35.2087 149.318 33.5768 149.928 32.0633C150.561 30.5497 151.44 29.2135 152.566 28.0546C153.715 26.8958 155.04 25.9971 156.541 25.3585C158.065 24.6963 159.706 24.3652 161.465 24.3652C163.763 24.3652 165.779 24.8619 167.515 25.8552C169.273 26.8485 170.586 28.1847 171.454 29.8638L167.163 33.1275C166.6 32.016 165.779 31.1409 164.701 30.5024C163.622 29.8638 162.473 29.5446 161.254 29.5446C159.988 29.5446 158.874 29.8875 157.912 30.5733C156.951 31.2355 156.201 32.146 155.661 33.3049C155.122 34.4637 154.852 35.7526 154.852 37.1716C154.852 38.6143 155.134 39.915 155.696 41.0738C156.259 42.209 157.033 43.1077 158.018 43.7699C159.026 44.4085 160.187 44.7278 161.5 44.7278C163.751 44.7278 165.779 43.6872 167.585 41.606V40.7901H162.731V36.5686H172.369V49.7297H167.585V47.2465C165.686 49.0202 163.493 49.9071 161.008 49.9071Z" fill="#C6CBCD"/>
<path d="M184.518 50.0844C182.408 50.0844 180.614 49.6351 179.137 48.7364C177.683 47.8377 176.569 46.6552 175.795 45.1889C175.021 43.7226 174.635 42.1381 174.635 40.4353C174.635 38.7089 175.021 37.1125 175.795 35.6462C176.569 34.1799 177.695 32.9974 179.172 32.0987C180.649 31.2 182.431 30.7507 184.518 30.7507C186.605 30.7507 188.387 31.2 189.865 32.0987C191.342 32.9974 192.467 34.1799 193.241 35.6462C194.015 37.1125 194.402 38.7089 194.402 40.4353C194.402 42.1381 194.015 43.7226 193.241 45.1889C192.467 46.6552 191.342 47.8377 189.865 48.7364C188.387 49.6351 186.605 50.0844 184.518 50.0844ZM180.403 40.4353C180.403 41.8779 180.79 43.0486 181.564 43.9473C182.361 44.846 183.346 45.2953 184.518 45.2953C185.667 45.2953 186.629 44.846 187.402 43.9473C188.2 43.0486 188.598 41.8779 188.598 40.4353C188.598 38.9927 188.2 37.822 187.402 36.9233C186.629 36.0246 185.667 35.5753 184.518 35.5753C183.346 35.5753 182.361 36.0246 181.564 36.9233C180.79 37.822 180.403 38.9927 180.403 40.4353Z" fill="#C6CBCD"/>
</svg>
