<svg width="42" height="42" viewBox="0 0 42 42" fill="none" xmlns="http://www.w3.org/2000/svg">
<path d="M21 41.9798C20.2708 41.9814 19.5501 41.8233 18.8884 41.5168C18.2267 41.2103 17.64 40.7627 17.1696 40.2055L15.3955 38.1892C15.0943 37.835 14.716 37.5546 14.2897 37.3694C13.8633 37.1841 13.4002 37.099 12.9359 37.1205L10.2344 37.3625C9.50598 37.4233 8.77302 37.3249 8.08639 37.0741C7.39976 36.8233 6.77589 36.4261 6.25805 35.9101C5.7402 35.3941 5.34079 34.7716 5.08749 34.0858C4.83419 33.4 4.73308 32.6673 4.79117 31.9386L4.87181 29.1762C4.90934 28.6982 4.83193 28.2181 4.64604 27.7761C4.46016 27.3342 4.1712 26.9431 3.80332 26.6356L1.78729 24.8814C1.22747 24.4102 0.777439 23.8222 0.468704 23.1587C0.159969 22.4952 0 21.7722 0 21.0403C0 20.3085 0.159969 19.5855 0.468704 18.922C0.777439 18.2585 1.22747 17.6705 1.78729 17.1992L3.80332 15.4249C4.16296 15.1194 4.44669 14.7346 4.63213 14.3007C4.81756 13.8668 4.89961 13.3957 4.87181 12.9246L4.67021 10.1623C4.60942 9.43371 4.70781 8.70065 4.95856 8.01391C5.20931 7.32718 5.60642 6.70322 6.12234 6.1853C6.63827 5.66738 7.26066 5.2679 7.94635 5.01457C8.63205 4.76124 9.36464 4.66011 10.0933 4.7182L12.8149 4.85935C13.2863 4.90663 13.7621 4.84178 14.2035 4.67007C14.645 4.49836 15.0396 4.22468 15.3551 3.87135L17.1091 1.85503C17.5792 1.27624 18.1723 0.80945 18.8453 0.488579C19.5184 0.167707 20.2544 0.000809746 21 1.08268e-05C21.7292 -0.00150676 22.4499 0.156532 23.1116 0.463047C23.7733 0.769562 24.36 1.21713 24.8304 1.77437L26.6045 3.7907C26.9077 4.14249 27.2863 4.42129 27.7121 4.60633C28.138 4.79137 28.6001 4.87786 29.0641 4.85935L31.7656 4.61739C32.494 4.55659 33.227 4.655 33.9136 4.90578C34.6002 5.15657 35.2241 5.55374 35.742 6.06974C36.2598 6.58574 36.6592 7.20822 36.9125 7.89402C37.1658 8.57982 37.2669 9.31252 37.2088 10.0413L37.1282 12.8037C37.0907 13.2817 37.1681 13.7617 37.354 14.2037C37.5398 14.6457 37.8288 15.0368 38.1967 15.3442L40.2127 17.0984C40.7725 17.5697 41.2226 18.1577 41.5313 18.8212C41.84 19.4847 42 20.2077 42 20.9395C42 21.6714 41.84 22.3943 41.5313 23.0578C41.2226 23.7214 40.7725 24.3093 40.2127 24.7806L38.1967 26.555C37.837 26.8604 37.5533 27.2453 37.3679 27.6792C37.1824 28.1131 37.1004 28.5842 37.1282 29.0552L37.3701 31.7772C37.4309 32.5058 37.3325 33.2389 37.0818 33.9256C36.831 34.6123 36.4339 35.2363 35.918 35.7542C35.4021 36.2721 34.7797 36.6716 34.094 36.925C33.4083 37.1783 32.6757 37.2794 31.947 37.2213L29.1851 37.1205C28.7073 37.0846 28.2278 37.1628 27.7862 37.3486C27.3445 37.5344 26.9534 37.8225 26.6449 38.1892L24.8909 40.2055C24.4215 40.7654 23.8355 41.216 23.1739 41.5259C22.5123 41.8359 21.7911 41.9977 21.0605 42L21 41.9798ZM13.1375 35.1042C13.8667 35.1027 14.5875 35.2607 15.2491 35.5672C15.9108 35.8737 16.4975 36.3213 16.968 36.8785L18.7421 38.8949C19.0223 39.2319 19.3738 39.5025 19.7712 39.6873C20.1686 39.8721 20.6021 39.9664 21.0403 39.9635C21.4804 39.9599 21.9147 39.8628 22.3144 39.6785C22.7141 39.4943 23.0701 39.2272 23.3587 38.8949L25.1127 36.8785C25.621 36.2608 26.2722 35.7764 27.0099 35.4672C27.7476 35.158 28.5496 35.0334 29.3463 35.1042L32.068 35.3058C32.5039 35.346 32.9433 35.2891 33.3547 35.1392C33.766 34.9893 34.139 34.7501 34.4469 34.4388C34.7563 34.1254 34.9941 33.7485 35.1437 33.3343C35.2934 32.92 35.3514 32.4782 35.3138 32.0394L35.1122 29.277C35.0384 28.4807 35.1575 27.6784 35.4593 26.9379C35.761 26.1974 36.2367 25.5404 36.846 25.0226L38.862 23.2482C39.2011 22.9762 39.4762 22.6328 39.6678 22.2426C39.8595 21.8523 39.9629 21.4246 39.9708 20.9899C39.9672 20.5498 39.8701 20.1154 39.6859 19.7156C39.5016 19.3159 39.2345 18.9598 38.9023 18.6712L36.8863 16.917C36.264 16.4035 35.777 15.7455 35.4677 15.0003C35.1585 14.2552 35.0364 13.4456 35.1122 12.6424L35.3138 9.92032C35.3525 9.48442 35.295 9.04533 35.1452 8.63416C34.9954 8.22299 34.757 7.84981 34.4469 7.54106C34.1343 7.23046 33.7576 6.99193 33.3432 6.84217C32.9288 6.6924 32.4867 6.63502 32.0478 6.67404L29.2859 6.87567C28.4893 6.95462 27.6854 6.83794 26.9441 6.53575C26.2029 6.23357 25.5465 5.75502 25.032 5.14163L23.2579 3.12531C22.9859 2.78614 22.6427 2.51098 22.2525 2.31933C21.8622 2.12768 21.4347 2.02423 21 2.01633C20.5599 2.01993 20.1256 2.11707 19.7259 2.30131C19.3262 2.48555 18.9702 2.75268 18.6816 3.08498L16.9276 5.10131C16.4131 5.72229 15.755 6.20843 15.0103 6.51762C14.2655 6.8268 13.4566 6.9497 12.6537 6.87567L9.93203 6.67404C9.4962 6.63526 9.05717 6.69282 8.64606 6.84266C8.23495 6.99249 7.86183 7.23092 7.55312 7.54106C7.23545 7.86125 6.99289 8.24804 6.84297 8.67347C6.69304 9.09889 6.63951 9.55232 6.68623 10.001L6.88783 12.7028C6.96158 13.4991 6.84253 14.3014 6.54075 15.042C6.23897 15.7825 5.76333 16.4394 5.15405 16.9573L3.13803 18.7316C2.79891 19.0037 2.52379 19.347 2.33216 19.7373C2.14054 20.1276 2.03711 20.5552 2.02921 20.9899C2.03281 21.4301 2.12994 21.8645 2.31415 22.2642C2.49836 22.664 2.76545 23.02 3.09771 23.3087L5.11373 25.0629C5.73597 25.5763 6.22301 26.2344 6.53227 26.9795C6.84154 27.7247 6.96361 28.5343 6.88783 29.3375L6.68623 32.0595C6.64746 32.4954 6.70502 32.9345 6.85483 33.3457C7.00464 33.7569 7.24303 34.13 7.55312 34.4388C7.8657 34.7494 8.24238 34.9879 8.65678 35.1377C9.07118 35.2874 9.51329 35.3448 9.95219 35.3058L12.7141 35.1042H13.1375Z" fill="#95E1D3"/>
<path d="M21 28.0471C19.1286 28.0471 17.3339 27.3036 16.0106 25.9801C14.6873 24.6567 13.9439 22.8617 13.9439 20.99C13.9439 19.1183 14.6873 17.3233 16.0106 15.9998C17.3339 14.6764 19.1286 13.9329 21 13.9329C22.8714 13.9329 24.6662 14.6764 25.9894 15.9998C27.3127 17.3233 28.0561 19.1183 28.0561 20.99C28.0561 22.8617 27.3127 24.6567 25.9894 25.9801C24.6662 27.3036 22.8714 28.0471 21 28.0471ZM21 15.9492C19.6633 15.9492 18.3814 16.4803 17.4362 17.4256C16.491 18.3709 15.96 19.6531 15.96 20.99C15.96 22.3269 16.491 23.609 17.4362 24.5544C18.3814 25.4997 19.6633 26.0308 21 26.0308C22.3367 26.0308 23.6187 25.4997 24.5639 24.5544C25.5091 23.609 26.0401 22.3269 26.0401 20.99C26.0401 19.6531 25.5091 18.3709 24.5639 17.4256C23.6187 16.4803 22.3367 15.9492 21 15.9492Z" fill="#95E1D3"/>
</svg>
