<svg width="17" height="17" viewBox="0 0 17 17" fill="none" xmlns="http://www.w3.org/2000/svg">
<g clip-path="url(#clip0_12901_611)">
<path d="M8.12182 0.737305C3.84972 0.737305 0.386719 4.20031 0.386719 8.4724C0.386719 12.7445 3.84972 16.2075 8.12182 16.2075C12.3939 16.2075 15.8569 12.7445 15.8569 8.4724C15.8569 4.20031 12.3939 0.737305 8.12182 0.737305ZM8.12182 1.85812C9.80691 1.85812 11.345 2.48853 12.513 3.52581C11.6548 4.65784 10.3511 5.41162 9.04461 5.92175C8.30504 4.57482 7.47618 3.27888 6.56358 2.0426C7.07398 1.91958 7.59719 1.85765 8.1222 1.85812H8.12182ZM5.30779 2.48466C6.17025 3.77488 7.00564 4.97111 7.76871 6.32514C5.8388 6.82521 3.65789 7.12534 1.64329 7.13036C2.06794 5.06973 3.45214 3.35873 5.30779 2.48505V2.48466ZM13.2467 4.29081C14.2025 5.45879 14.7283 6.91952 14.7361 8.4287C13.2061 8.12703 11.6846 8.04813 10.1353 8.20438C9.96122 7.77006 9.75006 7.35739 9.54778 6.91262C10.8832 6.37387 12.3111 5.45185 13.2467 4.29042V4.29081ZM8.30591 7.34849C8.47144 7.70044 8.66327 8.07405 8.8435 8.45577C6.68928 9.40564 4.39775 10.675 3.20848 12.9004C2.06678 11.6369 1.45834 9.98069 1.51063 8.27864C3.81762 8.26781 6.08207 7.97929 8.30591 7.34849ZM11.8014 9.15193C12.764 9.15214 13.7225 9.27561 14.6537 9.51935C14.5101 10.4152 14.1838 11.2719 13.695 12.0362C13.2061 12.8004 12.5653 13.456 11.8122 13.962C11.4572 12.3473 11.1188 10.8022 10.5205 9.24437C10.9445 9.18258 11.3725 9.15156 11.801 9.15155L11.8014 9.15193ZM14.6881 9.27183C14.6835 9.30973 14.6792 9.34686 14.6738 9.38398C14.6792 9.34647 14.6839 9.30934 14.6881 9.27183ZM9.29678 9.54642C9.9063 11.1217 10.3847 12.8659 10.7057 14.5634C9.88859 14.9101 9.00985 15.0882 8.1222 15.0871C6.6517 15.0892 5.22281 14.599 4.06321 13.6948C5.26099 11.7517 7.11625 10.2813 9.29639 9.54681L9.29678 9.54642Z" fill="#95E1D3"/>
</g>
<defs>
<clipPath id="clip0_12901_611">
<rect width="16.2437" height="16.2437" fill="white" transform="translate(0 0.350586)"/>
</clipPath>
</defs>
</svg>
