<svg width="17" height="17" viewBox="0 0 17 17" fill="none" xmlns="http://www.w3.org/2000/svg">
<path d="M8.12325 14.5914C6.45827 14.5914 6.26199 14.5826 5.61224 14.5542C5.10556 14.5375 4.60542 14.4345 4.13339 14.2496C3.72945 14.0924 3.36261 13.8529 3.05617 13.5464C2.74974 13.2398 2.5104 12.8729 2.35335 12.4689C2.17555 11.9952 2.07966 11.4946 2.06976 10.9887C2.03186 10.3403 2.03186 10.1278 2.03186 8.47567C2.03186 6.80595 2.04066 6.61103 2.06976 5.96466C2.07987 5.45943 2.17577 4.95959 2.35335 4.48648C2.51022 4.08197 2.74972 3.71462 3.05656 3.40789C3.36341 3.10117 3.73085 2.8618 4.13542 2.70509C4.60828 2.52655 5.10825 2.4304 5.6136 2.42083C6.25996 2.38428 6.47248 2.38428 8.12325 2.38428C9.80177 2.38428 9.99466 2.39308 10.6343 2.42083C11.1405 2.4303 11.6427 2.52641 12.1165 2.70509C12.521 2.86198 12.8883 3.10141 13.1951 3.40812C13.502 3.71482 13.7415 4.08208 13.8986 4.48648C14.0793 4.96703 14.1761 5.47464 14.1835 5.987C14.2214 6.63539 14.2214 6.84724 14.2214 8.49868C14.2214 10.1501 14.2119 10.3667 14.1835 11.0077C14.1734 11.5141 14.0773 12.015 13.8992 12.4892C13.7418 12.8935 13.502 13.2606 13.1951 13.5673C12.8882 13.874 12.5209 14.1135 12.1165 14.2706C11.6427 14.4479 11.1425 14.544 10.637 14.5542C9.9906 14.5914 9.77875 14.5914 8.12325 14.5914ZM8.10024 3.45569C6.44473 3.45569 6.27282 3.46381 5.62646 3.49291C5.24043 3.49796 4.85813 3.56915 4.49617 3.7034C4.23216 3.8046 3.99229 3.95999 3.79201 4.15957C3.59174 4.35914 3.43551 4.59847 3.33339 4.86212C3.19802 5.2276 3.12696 5.61407 3.1229 6.00392C3.08702 6.65976 3.08702 6.83167 3.08702 8.47567C3.08702 10.1 3.09312 10.297 3.1229 10.9488C3.12899 11.3346 3.20005 11.717 3.33339 12.0791C3.54049 12.6117 3.96283 13.0327 4.49684 13.2371C4.85834 13.3722 5.24057 13.4434 5.62646 13.4476C6.28162 13.4855 6.45421 13.4855 8.10024 13.4855C9.76048 13.4855 9.93239 13.4774 10.5733 13.4476C10.9594 13.4429 11.3418 13.3717 11.7036 13.2371C11.9662 13.1351 12.2047 12.9796 12.404 12.7805C12.6032 12.5814 12.7589 12.343 12.861 12.0804C12.9964 11.7149 13.0674 11.3278 13.0715 10.9379H13.0789C13.108 10.2909 13.108 10.1183 13.108 8.46484C13.108 6.81136 13.1006 6.63742 13.0715 5.99106C13.0654 5.60558 12.9942 5.2239 12.861 4.86212C12.7591 4.59921 12.6036 4.36039 12.4043 4.1609C12.2051 3.9614 11.9664 3.8056 11.7036 3.7034C11.3415 3.56804 10.9591 3.49765 10.5733 3.49291C9.91886 3.45569 9.74762 3.45569 8.10024 3.45569ZM8.12325 11.6019C7.50435 11.6023 6.89922 11.4192 6.38442 11.0756C5.86962 10.7321 5.46825 10.2436 5.2311 9.67192C4.99395 9.10025 4.93165 8.4711 5.0521 7.86403C5.17255 7.25696 5.47032 6.69924 5.90777 6.26142C6.34521 5.8236 6.90267 5.52534 7.50963 5.40437C8.1166 5.2834 8.74581 5.34515 9.31768 5.58181C9.88955 5.81846 10.3784 6.2194 10.7224 6.73391C11.0664 7.24842 11.25 7.85338 11.2502 8.47228C11.2491 9.30151 10.9194 10.0965 10.3333 10.6831C9.74719 11.2697 8.95248 11.6001 8.12325 11.6019ZM8.12325 6.44047C7.72166 6.44047 7.32909 6.55955 6.99519 6.78266C6.66128 7.00577 6.40103 7.32289 6.24735 7.69391C6.09367 8.06492 6.05346 8.47318 6.1318 8.86705C6.21015 9.26093 6.40353 9.62272 6.6875 9.90668C6.97146 10.1906 7.33326 10.384 7.72713 10.4624C8.121 10.5407 8.52926 10.5005 8.90028 10.3468C9.27129 10.1932 9.58841 9.9329 9.81152 9.599C10.0346 9.26509 10.1537 8.87252 10.1537 8.47093C10.1525 7.9328 9.93814 7.41707 9.55762 7.03656C9.17711 6.65604 8.66138 6.44172 8.12325 6.44047ZM11.372 5.95789C11.2762 5.95754 11.1814 5.93831 11.093 5.90132C11.0046 5.86432 10.9244 5.81028 10.8569 5.74228C10.7205 5.60494 10.6444 5.41908 10.6451 5.22557C10.6458 5.03207 10.7234 4.84677 10.8607 4.71045C10.998 4.57413 11.1839 4.49795 11.3774 4.49867C11.5709 4.49938 11.7562 4.57694 11.8925 4.71428C12.0288 4.85162 12.105 5.03748 12.1043 5.23099C12.1036 5.42449 12.026 5.60979 11.8887 5.74611C11.7514 5.88243 11.5655 5.95861 11.372 5.95789Z" fill="#95E1D3"/>
</svg>
