<svg width="17" height="17" viewBox="0 0 17 17" fill="none" xmlns="http://www.w3.org/2000/svg">
<path d="M8.79873 14.5636H6.09144V6.44179H8.79873V7.79543C9.08374 7.43284 9.44545 7.13781 9.85794 6.93151C10.2704 6.72521 10.7234 6.61275 11.1845 6.60219C11.9909 6.60667 12.7626 6.93074 13.3303 7.50333C13.8981 8.07593 14.2156 8.85032 14.2133 9.65669V14.5636H11.506V9.9951C11.4536 9.62932 11.2709 9.29477 10.9915 9.05301C10.7121 8.81126 10.3547 8.67856 9.9852 8.67936C9.81982 8.68458 9.6572 8.72317 9.50711 8.79279C9.35701 8.86241 9.22252 8.96164 9.11172 9.08452C9.00091 9.20739 8.91607 9.35139 8.86229 9.50786C8.80851 9.66434 8.78689 9.83006 8.79873 9.9951V14.5636ZM4.7378 14.5636H2.03052V6.44179H4.7378V14.5636ZM3.38416 5.08814C3.02515 5.08814 2.68085 4.94553 2.42699 4.69167C2.17313 4.43781 2.03052 4.09351 2.03052 3.7345C2.03052 3.37549 2.17313 3.03119 2.42699 2.77733C2.68085 2.52347 3.02515 2.38086 3.38416 2.38086C3.74317 2.38086 4.08747 2.52347 4.34133 2.77733C4.59519 3.03119 4.7378 3.37549 4.7378 3.7345C4.7378 4.09351 4.59519 4.43781 4.34133 4.69167C4.08747 4.94553 3.74317 5.08814 3.38416 5.08814Z" fill="#95E1D3"/>
</svg>
