<svg width="17" height="17" viewBox="0 0 17 17" fill="none" xmlns="http://www.w3.org/2000/svg">
<path d="M7.22166 10.5687C6.87919 12.4137 6.46226 14.1829 5.22503 15.1068C4.84398 12.3183 5.78612 10.2235 6.22335 8.00018C5.47749 6.70745 6.31336 4.10507 7.8863 4.74602C9.822 5.53519 6.20981 9.5528 8.63486 10.055C11.1668 10.5789 12.201 5.53181 10.6308 3.88984C8.3621 1.52029 4.02706 3.83637 4.5604 7.22928C4.69035 8.05906 5.52216 8.31084 4.89272 9.45602C3.44093 9.1237 3.00777 7.94468 3.06395 6.37242C3.15329 3.8005 5.30896 1.9988 7.47073 1.74973C10.2051 1.43433 12.7709 2.78324 13.1249 5.43164C13.5242 8.42048 11.891 11.6584 8.96786 11.4249C8.1753 11.3619 7.8423 10.9579 7.22166 10.5687Z" fill="#95E1D3"/>
</svg>
