<svg width="17" height="17" viewBox="0 0 17 17" fill="none" xmlns="http://www.w3.org/2000/svg">
<path d="M11.2353 4.2895C11.2353 4.2895 11.5805 4.62791 11.2353 4.2895C10.7727 3.76132 10.5177 3.08302 10.5179 2.38086H8.42652V10.7734C8.41039 11.2276 8.21865 11.6578 7.89167 11.9734C7.5647 12.289 7.128 12.4654 6.67355 12.4655C5.71247 12.4655 4.91382 11.6804 4.91382 10.7058C4.91382 9.54163 6.03734 8.66853 7.19471 9.02724V6.88849C4.85967 6.57715 2.81567 8.39103 2.81567 10.7058C2.81567 12.9596 4.6837 14.5636 6.66679 14.5636C8.792 14.5636 10.5179 12.8377 10.5179 10.7058V6.44855C11.366 7.05759 12.3841 7.38436 13.4282 7.38257V5.29119C13.4282 5.29119 12.1558 5.3521 11.2353 4.2895Z" fill="#95E1D3"/>
</svg>
