<svg width="17" height="17" viewBox="0 0 17 17" fill="none" xmlns="http://www.w3.org/2000/svg">
<path d="M13.288 5.7632C13.2968 5.88164 13.2968 5.99941 13.2968 6.11717C13.2968 9.72125 10.5537 13.8742 5.54045 13.8742C3.99595 13.8742 2.56109 13.4268 1.35364 12.6499C1.57293 12.6749 1.7841 12.6837 2.01218 12.6837C3.23926 12.6867 4.43158 12.2763 5.39697 11.5189C4.82805 11.5086 4.27654 11.3209 3.81946 10.982C3.36238 10.6431 3.02253 10.1699 2.84738 9.62852C3.01591 9.65356 3.18512 9.67048 3.36244 9.67048C3.60678 9.67048 3.85246 9.63664 4.08055 9.57776C3.46313 9.4531 2.90794 9.11843 2.50939 8.63067C2.11084 8.14291 1.89353 7.53217 1.89442 6.90229V6.86844C2.25787 7.07081 2.67953 7.19738 3.12623 7.2143C2.75201 6.96563 2.44516 6.62819 2.23306 6.23209C2.02096 5.83599 1.9102 5.39355 1.91066 4.94424C1.91066 4.43798 2.04535 3.97368 2.28156 3.56894C2.9666 4.4116 3.82099 5.10097 4.78941 5.59241C5.75783 6.08384 6.81867 6.36639 7.90324 6.42174C7.86127 6.2187 7.83555 6.0082 7.83555 5.79704C7.83538 5.43897 7.90577 5.08438 8.04271 4.75354C8.17966 4.4227 8.38046 4.12209 8.63365 3.8689C8.88684 3.61571 9.18745 3.4149 9.51829 3.27796C9.84914 3.14102 10.2037 3.07062 10.5618 3.0708C11.3469 3.0708 12.0555 3.39974 12.5537 3.93172C13.164 3.81369 13.7493 3.59089 14.2836 3.27317C14.0802 3.90317 13.654 4.43737 13.085 4.77571C13.6263 4.71397 14.1553 4.57162 14.6545 4.35338C14.2817 4.89693 13.8197 5.37358 13.288 5.7632Z" fill="#95E1D3"/>
</svg>
