<svg width="17" height="17" viewBox="0 0 17 17" fill="none" xmlns="http://www.w3.org/2000/svg">
<path d="M8.12594 13.2185H8.1124C8.07044 13.2185 3.87212 13.2104 2.81289 12.9227C2.52669 12.8456 2.26576 12.6947 2.05623 12.485C1.8467 12.2754 1.69592 12.0144 1.61898 11.7281C1.42851 10.6536 1.33653 9.56388 1.34419 8.47261C1.33927 7.37955 1.43374 6.28831 1.62643 5.21236C1.70554 4.92564 1.85702 4.66407 2.06633 4.45275C2.27563 4.24143 2.53574 4.08745 2.82169 4.00559C3.85181 3.73486 7.9344 3.73486 8.10767 3.73486H8.12188C8.16452 3.73486 12.3737 3.74298 13.4221 4.03063C14.0035 4.18833 14.4576 4.64248 14.6146 5.22387C14.8109 6.30272 14.9036 7.39714 14.8901 8.49359C14.8948 9.58533 14.8001 10.6752 14.6072 11.7498C14.5292 12.0357 14.3778 12.2963 14.168 12.5056C13.9583 12.7149 13.6973 12.8657 13.4112 12.943C12.3825 13.2158 8.2992 13.2185 8.12594 13.2185ZM6.7723 6.44553L6.76891 10.5065L10.2965 8.476L6.7723 6.44553Z" fill="#95E1D3"/>
</svg>
