<svg width="17" height="18" viewBox="0 0 17 18" fill="none" xmlns="http://www.w3.org/2000/svg">
<path d="M11.544 11.1518H8.7026C8.61267 11.1518 8.52643 11.1161 8.46284 11.0525C8.39925 10.9889 8.36353 10.9026 8.36353 10.8127C8.36353 10.7228 8.39925 10.6365 8.46284 10.5729C8.52643 10.5094 8.61267 10.4736 8.7026 10.4736H11.544C11.634 10.4736 11.7202 10.5094 11.7838 10.5729C11.8474 10.6365 11.8831 10.7228 11.8831 10.8127C11.8831 10.9026 11.8474 10.9889 11.7838 11.0525C11.7202 11.1161 11.634 11.1518 11.544 11.1518Z" fill="white"/>
<path d="M13.4564 10.9417C13.4163 10.9512 13.3745 10.9512 13.3344 10.9417C13.2926 10.9267 13.2542 10.9034 13.2216 10.8732C13.189 10.8431 13.1627 10.8067 13.1444 10.7663C13.126 10.7258 13.116 10.6821 13.1149 10.6377C13.1137 10.5932 13.1215 10.5491 13.1377 10.5077L14.7517 6.1947C14.7836 6.11142 14.8471 6.04409 14.9283 6.00728C15.0096 5.97047 15.102 5.96715 15.1857 5.99803C15.2696 6.03147 15.3375 6.09583 15.3754 6.17785C15.4132 6.25986 15.4182 6.35328 15.3892 6.43883L13.7752 10.7315C13.7478 10.7934 13.7032 10.8462 13.6467 10.8835C13.5902 10.9208 13.5241 10.941 13.4564 10.9417Z" fill="white"/>
<path d="M6.53255 11.0706C6.4618 11.0711 6.39273 11.049 6.3354 11.0076C6.27808 10.9661 6.23548 10.9074 6.21382 10.84L4.08445 4.37053H2.05001C1.96008 4.37053 1.87384 4.3348 1.81025 4.27122C1.74666 4.20763 1.71094 4.12138 1.71094 4.03146C1.71267 3.94207 1.74895 3.85683 1.81217 3.79362C1.87539 3.7304 1.96063 3.69412 2.05001 3.69238H4.32858C4.39884 3.69388 4.46698 3.71675 4.52392 3.75794C4.58086 3.79913 4.6239 3.85669 4.64731 3.92295L6.87841 10.623C6.89327 10.6649 6.8996 10.7092 6.89703 10.7535C6.89446 10.7978 6.88305 10.8412 6.86345 10.881C6.84386 10.9208 6.81648 10.9563 6.78294 10.9854C6.74941 11.0145 6.71038 11.0365 6.66818 11.0503C6.6251 11.0672 6.57872 11.0742 6.53255 11.0706Z" fill="white"/>
<path d="M7.57692 14.1221C7.17454 14.1221 6.78121 14.0028 6.44665 13.7792C6.11208 13.5557 5.85133 13.238 5.69734 12.8662C5.54336 12.4945 5.50307 12.0854 5.58157 11.6908C5.66007 11.2961 5.85383 10.9336 6.13835 10.6491C6.42288 10.3646 6.78538 10.1708 7.18002 10.0923C7.57466 10.0138 7.98372 10.0541 8.35546 10.2081C8.72721 10.3621 9.04494 10.6228 9.26849 10.9574C9.49204 11.2919 9.61136 11.6853 9.61136 12.0877C9.61136 12.6272 9.39701 13.1447 9.01548 13.5262C8.63395 13.9078 8.11648 14.1221 7.57692 14.1221ZM7.57692 10.7314C7.30867 10.7314 7.04644 10.8109 6.8234 10.9599C6.60036 11.109 6.42652 11.3208 6.32387 11.5686C6.22121 11.8165 6.19435 12.0892 6.24669 12.3523C6.29902 12.6154 6.4282 12.857 6.61788 13.0467C6.80756 13.2364 7.04922 13.3656 7.31232 13.4179C7.57541 13.4702 7.84812 13.4434 8.09595 13.3407C8.34378 13.2381 8.5556 13.0642 8.70463 12.8412C8.85366 12.6181 8.93321 12.3559 8.93321 12.0877C8.93321 11.728 8.79032 11.383 8.53596 11.1286C8.28161 10.8743 7.93663 10.7314 7.57692 10.7314Z" fill="white"/>
<path d="M12.6698 14.1221C12.2674 14.1221 11.8741 14.0028 11.5395 13.7792C11.205 13.5557 10.9442 13.238 10.7902 12.8662C10.6363 12.4945 10.596 12.0854 10.6745 11.6908C10.753 11.2961 10.9467 10.9336 11.2312 10.6491C11.5158 10.3646 11.8783 10.1708 12.2729 10.0923C12.6676 10.0138 13.0766 10.0541 13.4484 10.2081C13.8201 10.3621 14.1378 10.6228 14.3614 10.9574C14.5849 11.2919 14.7043 11.6853 14.7043 12.0877C14.7043 12.6272 14.4899 13.1447 14.1084 13.5262C13.7268 13.9078 13.2094 14.1221 12.6698 14.1221ZM12.6698 10.7314C12.4016 10.7314 12.1393 10.8109 11.9163 10.9599C11.6933 11.109 11.5194 11.3208 11.4168 11.5686C11.3141 11.8165 11.2872 12.0892 11.3396 12.3523C11.3919 12.6154 11.5211 12.857 11.7108 13.0467C11.9005 13.2364 12.1421 13.3656 12.4052 13.4179C12.6683 13.4702 12.941 13.4434 13.1888 13.3407C13.4367 13.2381 13.6485 13.0642 13.7975 12.8412C13.9466 12.6181 14.0261 12.3559 14.0261 12.0877C14.0261 11.728 13.8832 11.383 13.6289 11.1286C13.3745 10.8743 13.0295 10.7314 12.6698 10.7314Z" fill="white"/>
</svg>
