<svg width="17" height="18" viewBox="0 0 17 18" fill="none" xmlns="http://www.w3.org/2000/svg">
<path d="M7.05167 12.298C6.07869 12.298 5.12759 12.0093 4.31877 11.4684C3.50996 10.9276 2.8798 10.1589 2.50808 9.25974C2.13636 8.36057 2.03979 7.37132 2.2306 6.41723C2.42141 5.46314 2.89101 4.58712 3.57996 3.90007C4.26892 3.21302 5.14623 2.74584 6.10084 2.55767C7.05545 2.3695 8.04443 2.4688 8.94257 2.843C9.84072 3.2172 10.6076 3.84948 11.1462 4.65979C11.6848 5.47009 11.9709 6.42199 11.9682 7.39497C11.9629 8.69601 11.4427 9.94204 10.5214 10.8608C9.60019 11.7795 8.35273 12.2962 7.05167 12.298ZM7.05167 3.14299C6.21397 3.143 5.39506 3.39124 4.69835 3.85636C4.00165 4.32149 3.4584 4.98264 3.13721 5.75632C2.81602 6.52999 2.73129 7.3815 2.89374 8.2033C3.05618 9.0251 3.4585 9.78033 4.0499 10.3736C4.6413 10.9669 5.39524 11.3716 6.21652 11.5367C7.03779 11.7018 7.88956 11.6198 8.66427 11.3011C9.43897 10.9823 10.1018 10.4412 10.5692 9.74599C11.0365 9.05078 11.2874 8.23266 11.2901 7.39497C11.2901 6.27087 10.8435 5.19281 10.0487 4.39796C9.25382 3.6031 8.17577 3.15655 7.05167 3.15655V3.14299Z" fill="white"/>
<path d="M14.6809 15.3631C14.6364 15.3636 14.5923 15.3548 14.5514 15.3373C14.5105 15.3198 14.4738 15.2939 14.4435 15.2613L10.0491 10.867C9.98617 10.804 9.95081 10.7186 9.95081 10.6296C9.95081 10.5406 9.98617 10.4552 10.0491 10.3923C10.1121 10.3293 10.1974 10.2939 10.2865 10.2939C10.3755 10.2939 10.4609 10.3293 10.5238 10.3923L14.9182 14.7866C14.9506 14.8171 14.9765 14.8539 14.9942 14.8947C15.0118 14.9355 15.021 14.9795 15.021 15.024C15.021 15.0685 15.0118 15.1125 14.9942 15.1533C14.9765 15.1941 14.9506 15.2309 14.9182 15.2613C14.8879 15.2939 14.8512 15.3198 14.8103 15.3373C14.7694 15.3548 14.7253 15.3636 14.6809 15.3631Z" fill="white"/>
</svg>
