<svg width="88" height="88" viewBox="0 0 88 88" fill="none" xmlns="http://www.w3.org/2000/svg">
<g opacity="0.1">
<path opacity="0.1" d="M87.2058 85.1719V87.2063H85.1714" stroke="#20263C" stroke-miterlimit="10"/>
<path opacity="0.1" d="M81.2586 87.2061H4.98755" stroke="#20263C" stroke-miterlimit="10" stroke-dasharray="5.77 5.77"/>
<path opacity="0.1" d="M3.03442 87.2063H1V85.1719" stroke="#20263C" stroke-miterlimit="10"/>
<path opacity="0.1" d="M1 81.2589V4.98779" stroke="#20263C" stroke-miterlimit="10" stroke-dasharray="5.77 5.77"/>
<path opacity="0.1" d="M1 3.03493V1.00049H3.03442" stroke="#20263C" stroke-miterlimit="10"/>
<path opacity="0.1" d="M6.94055 1H83.2184" stroke="#20263C" stroke-miterlimit="10" stroke-dasharray="5.77 5.77"/>
<path opacity="0.1" d="M85.1714 1H87.2058V3.03444" stroke="#20263C" stroke-miterlimit="10"/>
<path opacity="0.1" d="M87.2058 6.94043V83.2182" stroke="#20263C" stroke-miterlimit="10" stroke-dasharray="5.77 5.77"/>
</g>
<path d="M43.7232 55.481C42.4032 55.4869 41.1006 55.1671 39.9224 54.5479C38.7441 53.9287 37.7237 53.0278 36.9449 51.919L31.5166 55.1625C31.7232 55.4102 31.9677 55.6206 32.2404 55.7851L41.8999 61.5769C42.4644 61.8769 43.0893 62.0333 43.7232 62.0333C44.3572 62.0333 44.982 61.8769 45.5466 61.5769L55.2061 55.7851C55.4787 55.6206 55.7233 55.4102 55.9298 55.1625L50.5155 51.8611C49.7413 52.9826 48.7214 53.8959 47.5401 54.5254C46.3589 55.1549 45.0504 55.4825 43.7232 55.481Z" fill="#414042"/>
<path d="M35.2242 46.7404C35.2291 44.6812 36.0295 42.696 37.4722 41.1641C38.915 39.6322 40.8991 38.6612 43.045 38.4366V32.1949C42.7195 32.2594 42.4062 32.3715 42.1164 32.527L32.0465 38.0629C31.4992 38.4122 31.0441 38.8775 30.7169 39.4226C30.3896 39.9677 30.1991 40.5775 30.1603 41.2045V52.2763C30.1648 52.5957 30.2185 52.9129 30.3198 53.2174L35.9788 50.1035C35.4839 49.045 35.2269 47.8994 35.2242 46.7404Z" fill="#414042"/>
<path d="M55.4991 38.0591L45.9592 32.5268C45.6847 32.3713 45.388 32.2594 45.0795 32.1949V38.4186C46.3755 38.5664 47.6189 39.0182 48.7097 39.7378C49.8004 40.4574 50.7079 41.4247 51.3592 42.5616C52.0105 43.6986 52.3873 44.9736 52.4593 46.2839C52.5313 47.5942 52.2966 48.9032 51.7738 50.1055L57.1349 53.2174C57.231 52.913 57.2819 52.5962 57.2861 52.2769V41.2125C57.2514 40.5835 57.0719 39.9712 56.7617 39.424C56.4516 38.8767 56.0194 38.4095 55.4991 38.0591Z" fill="#414042"/>
<path d="M62.4478 32.5144L46.6992 23.4063C45.7756 22.9424 44.7565 22.7008 43.7231 22.7008C42.6898 22.7008 41.6708 22.9424 40.7471 23.4063L24.9984 32.5144C24.134 33.0783 23.4143 33.8379 22.8973 34.7318C22.3803 35.6256 22.0806 36.6287 22.0225 37.6598V55.8759C22.0796 56.9093 22.3787 57.9148 22.8956 58.8111C23.4126 59.7074 24.1329 60.4695 24.9984 61.0357L40.7471 70.1439C41.6708 70.6078 42.6898 70.8492 43.7231 70.8492C44.7565 70.8492 45.7756 70.6078 46.6992 70.1439L62.4478 61.0357C63.3133 60.4695 64.0337 59.7074 64.5506 58.8111C65.0676 57.9148 65.3667 56.9093 65.4238 55.8759V37.6598C65.3656 36.6287 65.0659 35.6256 64.549 34.7318C64.032 33.8379 63.3122 33.0783 62.4478 32.5144ZM60.4258 53.7806C60.3795 54.5745 60.1481 55.3464 59.7499 56.0345C59.3519 56.7227 58.7982 57.3078 58.1332 57.7431L46.0014 64.7558C45.2927 65.1141 44.5099 65.3008 43.716 65.3008C42.9221 65.3008 42.1392 65.1141 41.4307 64.7558L29.313 57.7431C28.6481 57.3078 28.0944 56.7227 27.6963 56.0345C27.2982 55.3464 27.0667 54.5745 27.0205 53.7806V39.7694C27.0667 38.9755 27.2982 38.2036 27.6963 37.5155C28.0944 36.8273 28.6481 36.2421 29.313 35.8069L41.4163 28.7942C42.125 28.4359 42.9078 28.2492 43.7018 28.2492C44.4957 28.2492 45.2785 28.4359 45.9872 28.7942L58.119 35.8069C58.7865 36.2406 59.3431 36.8251 59.7437 37.5133C60.1444 38.2015 60.378 38.9743 60.4258 39.7694V53.7806Z" fill="#414042"/>
<path d="M37.6199 46.775C37.6199 47.915 37.9778 49.0295 38.6484 49.9774C39.319 50.9254 40.2723 51.6642 41.3876 52.1005C42.5028 52.5367 43.73 52.6509 44.9139 52.4285C46.0978 52.2061 47.1853 51.6571 48.0388 50.8509C48.8924 50.0448 49.4737 49.0177 49.7092 47.8996C49.9447 46.7814 49.8239 45.6224 49.3619 44.5691C48.8999 43.5158 48.1178 42.6156 47.114 41.9822C46.1104 41.3488 44.9303 41.0108 43.7232 41.0108C42.1045 41.0108 40.5521 41.6181 39.4075 42.6991C38.2629 43.7801 37.6199 45.2463 37.6199 46.775Z" fill="#414042"/>
</svg>
