<svg width="88" height="88" viewBox="0 0 88 88" fill="none" xmlns="http://www.w3.org/2000/svg">
<g opacity="0.1">
<path opacity="0.1" d="M87.2058 85.1714V87.2058H85.1714" stroke="#20263C" stroke-miterlimit="10"/>
<path opacity="0.1" d="M81.2653 87.2061H4.98743" stroke="#20263C" stroke-miterlimit="10" stroke-dasharray="5.77 5.77"/>
<path opacity="0.1" d="M3.03444 87.2058H1V85.1714" stroke="#20263C" stroke-miterlimit="10"/>
<path opacity="0.1" d="M1 81.2652V4.9873" stroke="#20263C" stroke-miterlimit="10" stroke-dasharray="5.77 5.77"/>
<path opacity="0.1" d="M1 3.03444V1H3.03444" stroke="#20263C" stroke-miterlimit="10"/>
<path opacity="0.1" d="M6.94739 1H83.2184" stroke="#20263C" stroke-miterlimit="10" stroke-dasharray="5.77 5.77"/>
<path opacity="0.1" d="M85.1714 1H87.2058V3.03444" stroke="#20263C" stroke-miterlimit="10"/>
<path opacity="0.1" d="M87.2058 6.94727V83.2183" stroke="#20263C" stroke-miterlimit="10" stroke-dasharray="5.77 5.77"/>
</g>
<path d="M34.962 25.6825C34.2848 26.1275 33.7209 26.7262 33.3157 27.4304C32.9105 28.1345 32.6752 28.9245 32.6288 29.7367V34.3538C32.6752 35.166 32.9105 35.956 33.3157 36.6601C33.7209 37.3643 34.2848 37.963 34.962 38.408L39.7897 41.2698C41.0701 42.0138 42.1228 41.4034 42.1228 39.9152V24.2707C42.1228 22.7826 41.0701 22.1721 39.7897 22.9162L34.962 25.6825Z" fill="#231F20"/>
<path d="M34.4592 39.4085C33.7583 39.0574 32.9838 38.8745 32.1983 38.8745C31.4128 38.8745 30.6383 39.0574 29.9373 39.4085L26.0785 41.5979C25.421 42.0234 24.8735 42.5959 24.4799 43.2692C24.0865 43.9426 23.858 44.698 23.813 45.4748V50.8386C23.813 52.2617 24.8353 52.8455 26.0785 52.134L39.156 44.6538C40.3993 43.9423 40.3993 42.7838 39.156 42.0722L34.4592 39.4085Z" fill="#231F20"/>
<path d="M51.9963 25.6825C52.6735 26.1275 53.2374 26.7262 53.6426 27.4304C54.0479 28.1345 54.2832 28.9245 54.3295 29.7367V34.3538C54.2832 35.166 54.0479 35.956 53.6426 36.6601C53.2374 37.3643 52.6735 37.963 51.9963 38.408L47.1592 41.2698C45.8788 42.0138 44.8354 41.4034 44.8354 39.9152V24.2707C44.8354 22.7826 45.8788 22.1721 47.1592 22.9162L51.9963 25.6825Z" fill="#231F20"/>
<path d="M52.059 39.4085C52.7896 39.0574 53.5968 38.8745 54.4154 38.8745C55.2341 38.8745 56.0413 39.0574 56.7719 39.4085L60.7937 41.5979C61.4778 42.0239 62.0471 42.5967 62.4555 43.2701C62.864 43.9435 63.1003 44.6987 63.1454 45.4748V50.8386C63.1454 52.2617 62.0895 52.8455 60.7937 52.134L47.1637 44.6538C45.8678 43.9423 45.8678 42.7838 47.1637 42.0722L52.059 39.4085Z" fill="#231F20"/>
<path d="M32.1581 59.3636C32.8594 59.7143 33.6343 59.897 34.4202 59.897C35.2062 59.897 35.9811 59.7143 36.6824 59.3636L40.5435 57.1681C41.2004 56.7407 41.7468 56.167 42.1389 55.493C42.5309 54.819 42.7577 54.0636 42.801 53.2873V47.9306C42.801 46.5094 41.7875 45.9264 40.5435 46.637L27.4585 54.1072C26.2145 54.8177 26.2145 55.9747 27.4585 56.6853L32.1581 59.3636Z" fill="#231F20"/>
<path d="M43.4791 53.2917C43.525 54.0661 43.7616 54.8195 44.17 55.4914C44.5785 56.1634 45.1472 56.7351 45.8308 57.1608L49.8527 59.3639C50.5832 59.7144 51.3904 59.897 52.2092 59.897C53.0278 59.897 53.835 59.7144 54.5656 59.3639L59.4609 56.6783C60.7567 55.9683 60.7567 54.812 59.4609 54.1019L45.8308 46.6368C44.535 45.9267 43.4791 46.5093 43.4791 47.9295V53.2917Z" fill="#231F20"/>
</svg>
