<svg width="87" height="87" viewBox="0 0 87 87" fill="none" xmlns="http://www.w3.org/2000/svg">
<path opacity="0.95" d="M27.9343 57.3727V65.273L34.77 61.3195V53.4258L27.9343 57.3727Z" fill="#414042"/>
<path opacity="0.5" d="M26.8357 57.3727V65.273L20 61.3195V53.4258L26.8357 57.3727Z" fill="#414042"/>
<path opacity="0.3" d="M27.9343 48.8416V56.1045L34.2275 52.4696L27.9343 48.8416Z" fill="#414042"/>
<path opacity="0.75" d="M26.8357 48.8416L20.5425 52.4696L26.8357 56.1045V48.8416Z" fill="#414042"/>
<path opacity="0.95" d="M26.8357 46.902V39.0016L20 42.9552V50.8489L26.8357 46.902Z" fill="#414042"/>
<path opacity="0.95" d="M27.9343 28.5311V36.4315L34.77 32.4779V24.5843L27.9343 28.5311Z" fill="#414042"/>
<path opacity="0.5" d="M26.8357 28.5311V36.4315L20 32.4779V24.5843L26.8357 28.5311Z" fill="#414042"/>
<path opacity="0.3" d="M27.9343 20V27.2629L34.2275 23.6281L27.9343 20Z" fill="#414042"/>
<path opacity="0.75" d="M26.8357 20L20.5425 23.6281L26.8357 27.2629V20Z" fill="#414042"/>
<path opacity="0.75" d="M20.5425 34.0511V41.3209L26.8357 37.686L20.5425 34.0511Z" fill="#414042"/>
<path opacity="0.15" d="M34.2275 34.0511L27.9343 37.686L34.2275 41.3209V34.0511Z" fill="#414042"/>
<path opacity="0.5" d="M27.9343 46.902V39.0016L34.77 42.9552V50.8489L27.9343 46.902Z" fill="#414042"/>
<path opacity="0.95" d="M43.8707 57.3727V65.273L50.7064 61.3195V53.4258L43.8707 57.3727Z" fill="#414042"/>
<path opacity="0.5" d="M42.7721 57.3727V65.273L35.9364 61.3195V53.4258L42.7721 57.3727Z" fill="#414042"/>
<path opacity="0.3" d="M43.8707 48.8416V56.1045L50.1639 52.4696L43.8707 48.8416Z" fill="#414042"/>
<path opacity="0.75" d="M42.7721 48.8416L36.4789 52.4696L42.7721 56.1045V48.8416Z" fill="#414042"/>
<path opacity="0.95" d="M42.7721 46.902V39.0016L35.9364 42.9552V50.8489L42.7721 46.902Z" fill="#414042"/>
<path opacity="0.95" d="M43.8707 28.5311V36.4315L50.7064 32.4779V24.5843L43.8707 28.5311Z" fill="#414042"/>
<path opacity="0.5" d="M42.7721 28.5311V36.4315L35.9364 32.4779V24.5843L42.7721 28.5311Z" fill="#414042"/>
<path opacity="0.3" d="M43.8707 20V27.2629L50.1639 23.6281L43.8707 20Z" fill="#414042"/>
<path opacity="0.75" d="M42.7721 20L36.4789 23.6281L42.7721 27.2629V20Z" fill="#414042"/>
<path opacity="0.75" d="M36.4789 34.0511V41.3209L42.7721 37.686L36.4789 34.0511Z" fill="#414042"/>
<path opacity="0.15" d="M50.1639 34.0511L43.8707 37.686L50.1639 41.3209V34.0511Z" fill="#414042"/>
<path opacity="0.5" d="M43.8707 46.902V39.0016L50.7064 42.9552V50.8489L43.8707 46.902Z" fill="#414042"/>
<path opacity="0.95" d="M59.5765 57.3727V65.273L66.419 61.3195V53.4258L59.5765 57.3727Z" fill="#414042"/>
<path opacity="0.5" d="M58.4847 57.3727V65.273L51.6422 61.3195V53.4258L58.4847 57.3727Z" fill="#414042"/>
<path opacity="0.3" d="M59.5765 48.8416V56.1045L65.8697 52.4696L59.5765 48.8416Z" fill="#414042"/>
<path opacity="0.75" d="M58.4847 48.8416L52.1915 52.4696L58.4847 56.1045V48.8416Z" fill="#414042"/>
<path opacity="0.95" d="M58.4847 46.902V39.0016L51.6422 42.9552V50.8489L58.4847 46.902Z" fill="#414042"/>
<path opacity="0.95" d="M59.5765 28.5311V36.4315L66.419 32.4779V24.5843L59.5765 28.5311Z" fill="#414042"/>
<path opacity="0.5" d="M58.4847 28.5311V36.4315L51.6422 32.4779V24.5843L58.4847 28.5311Z" fill="#414042"/>
<path opacity="0.3" d="M59.5765 20V27.2629L65.8697 23.6281L59.5765 20Z" fill="#414042"/>
<path opacity="0.75" d="M58.4847 20L52.1915 23.6281L58.4847 27.2629V20Z" fill="#414042"/>
<path opacity="0.75" d="M52.1915 34.0511V41.3209L58.4847 37.686L52.1915 34.0511Z" fill="#414042"/>
<path opacity="0.15" d="M65.8697 34.0511L59.5765 37.686L65.8697 41.3209V34.0511Z" fill="#414042"/>
<path opacity="0.5" d="M59.5765 46.902V39.0016L66.419 42.9552V50.8489L59.5765 46.902Z" fill="#414042"/>
</svg>
