<svg width="57" height="57" viewBox="0 0 57 57" fill="none" xmlns="http://www.w3.org/2000/svg">
<path d="M28.5 51.0625C24.0376 51.0625 19.6753 49.7392 15.965 47.26C12.2546 44.7808 9.36268 41.2571 7.65498 37.1343C5.94728 33.0115 5.50046 28.475 6.37104 24.0983C7.24162 19.7216 9.39049 15.7013 12.5459 12.5459C15.7013 9.39049 19.7216 7.24162 24.0983 6.37104C28.475 5.50046 33.0115 5.94728 37.1343 7.65498C41.2571 9.36268 44.7808 12.2546 47.26 15.965C49.7392 19.6753 51.0625 24.0376 51.0625 28.5C51.0562 34.482 48.6771 40.2172 44.4472 44.4472C40.2172 48.6771 34.482 51.0562 28.5 51.0625ZM28.5 8.31251C24.5073 8.31251 20.6043 9.49649 17.2844 11.7147C13.9646 13.9329 11.3771 17.0858 9.84919 20.7746C8.32125 24.4634 7.92147 28.5224 8.70041 32.4384C9.47935 36.3544 11.402 39.9515 14.2253 42.7747C17.0486 45.598 20.6456 47.5207 24.5616 48.2996C28.4776 49.0786 32.5367 48.6788 36.2254 47.1508C39.9142 45.6229 43.0671 43.0354 45.2853 39.7156C47.5035 36.3958 48.6875 32.4927 48.6875 28.5C48.6812 23.1479 46.5523 18.0168 42.7678 14.2322C38.9833 10.4477 33.8521 8.3188 28.5 8.31251Z" fill="#95E1D3"/>
<path d="M28.5 40.8737C26.0527 40.8737 23.6603 40.148 21.6255 38.7884C19.5906 37.4287 18.0047 35.4962 17.0681 33.2352C16.1316 30.9742 15.8865 28.4863 16.364 26.086C16.8414 23.6857 18.0199 21.4809 19.7504 19.7504C21.4809 18.0199 23.6857 16.8414 26.086 16.364C28.4863 15.8865 30.9742 16.1316 33.2352 17.0681C35.4962 18.0047 37.4287 19.5906 38.7884 21.6255C40.148 23.6603 40.8737 26.0527 40.8737 28.5C40.8674 31.7798 39.5618 34.9234 37.2426 37.2426C34.9234 39.5618 31.7798 40.8674 28.5 40.8737ZM28.5 18.5012C26.5224 18.5012 24.5893 19.0876 22.945 20.1863C21.3007 21.285 20.0191 22.8466 19.2623 24.6736C18.5056 26.5007 18.3075 28.5111 18.6933 30.4506C19.0792 32.3902 20.0314 34.1718 21.4298 35.5702C22.8281 36.9685 24.6097 37.9208 26.5493 38.3066C28.4889 38.6924 30.4993 38.4944 32.3263 37.7376C34.1534 36.9808 35.715 35.6993 36.8136 34.055C37.9123 32.4107 38.4987 30.4775 38.4987 28.5C38.4925 25.8501 37.437 23.3105 35.5632 21.4367C33.6895 19.5629 31.1499 18.5075 28.5 18.5012Z" fill="#95E1D3"/>
<path d="M49.875 29.6875H7.125C6.81006 29.6875 6.50801 29.5624 6.28531 29.3397C6.06261 29.117 5.9375 28.8149 5.9375 28.5C5.9375 28.1851 6.06261 27.883 6.28531 27.6603C6.50801 27.4376 6.81006 27.3125 7.125 27.3125H49.875C50.1899 27.3125 50.492 27.4376 50.7147 27.6603C50.9374 27.883 51.0625 28.1851 51.0625 28.5C51.0625 28.8149 50.9374 29.117 50.7147 29.3397C50.492 29.5624 50.1899 29.6875 49.875 29.6875Z" fill="#95E1D3"/>
<path d="M28.5 51.0625C28.1851 51.0625 27.883 50.9374 27.6603 50.7147C27.4376 50.492 27.3125 50.1899 27.3125 49.875V7.125C27.3125 6.81006 27.4376 6.50801 27.6603 6.28531C27.883 6.06261 28.1851 5.9375 28.5 5.9375C28.8149 5.9375 29.117 6.06261 29.3397 6.28531C29.5624 6.50801 29.6875 6.81006 29.6875 7.125V49.875C29.6875 50.1899 29.5624 50.492 29.3397 50.7147C29.117 50.9374 28.8149 51.0625 28.5 51.0625Z" fill="#95E1D3"/>
</svg>
