<svg width="57" height="57" viewBox="0 0 57 57" fill="none" xmlns="http://www.w3.org/2000/svg">
<path d="M28.5 43.2488C28.1868 43.2443 27.888 43.1163 27.6688 42.8925L14.1313 29.355C14.02 29.2446 13.9316 29.1133 13.8714 28.9686C13.8111 28.8239 13.78 28.6687 13.78 28.5119C13.78 28.3551 13.8111 28.1999 13.8714 28.0552C13.9316 27.9105 14.02 27.7792 14.1313 27.6688L34.0575 7.48128C34.157 7.3591 34.2845 7.26285 34.4293 7.2008C34.5741 7.13875 34.7318 7.11275 34.8888 7.12503H48.545C48.8581 7.13111 49.1566 7.25818 49.378 7.47957C49.5994 7.70097 49.7265 7.99949 49.7325 8.31253L49.875 21.8263C49.8788 21.9858 49.849 22.1443 49.7877 22.2916C49.7263 22.4389 49.6347 22.5716 49.5188 22.6813L29.3313 42.8925C29.1106 43.1142 28.8127 43.2418 28.5 43.2488ZM16.625 28.5L28.5 40.375L47.5 21.375L47.3575 9.50003H35.4825L16.625 28.5Z" fill="#95E1D3"/>
<path d="M35.1263 49.875C34.8173 49.872 34.5208 49.7534 34.295 49.5425L7.48127 22.7287C7.36996 22.6183 7.28162 22.487 7.22133 22.3423C7.16104 22.1976 7.13 22.0424 7.13 21.8856C7.13 21.7288 7.16104 21.5736 7.22133 21.4289C7.28162 21.2842 7.36996 21.1529 7.48127 21.0425C7.58788 20.9289 7.71665 20.8383 7.85961 20.7764C8.00258 20.7145 8.15672 20.6826 8.31252 20.6826C8.46831 20.6826 8.62245 20.7145 8.76542 20.7764C8.90839 20.8383 9.03715 20.9289 9.14376 21.0425L35.9813 47.8562C36.2004 48.0822 36.3229 48.3846 36.3229 48.6993C36.3229 49.0141 36.2004 49.3165 35.9813 49.5425C35.747 49.7549 35.4425 49.8733 35.1263 49.875Z" fill="#95E1D3"/>
<path d="M16.625 49.7326C16.3041 49.7318 15.9965 49.6037 15.77 49.3764L7.52875 41.2539C7.40471 41.143 7.30484 41.0077 7.23537 40.8565C7.16591 40.7053 7.12834 40.5415 7.125 40.3751C7.125 39.7339 7.125 39.6389 16.625 30.3051C16.7354 30.1938 16.8667 30.1055 17.0114 30.0452C17.1561 29.9849 17.3114 29.9539 17.4681 29.9539C17.6249 29.9539 17.7801 29.9849 17.9248 30.0452C18.0695 30.1055 18.2009 30.1938 18.3112 30.3051C18.5303 30.5311 18.6529 30.8335 18.6529 31.1482C18.6529 31.463 18.5303 31.7654 18.3112 31.9914C15.7463 34.6514 11.6375 38.7126 10.0225 40.3751L16.625 46.8589L25.0087 38.4514C25.2324 38.2278 25.5356 38.1021 25.8519 38.1021C26.1681 38.1021 26.4714 38.2278 26.695 38.4514C26.9186 38.675 27.0442 38.9783 27.0442 39.2945C27.0442 39.6107 26.9186 39.914 26.695 40.1376L17.3375 49.3764C17.1481 49.5736 16.8964 49.6994 16.625 49.7326Z" fill="#95E1D3"/>
<path d="M28.4999 29.6875C28.3442 29.6894 28.1898 29.6587 28.0466 29.5974C27.9035 29.536 27.7747 29.4454 27.6687 29.3313C27.5551 29.2247 27.4646 29.0959 27.4027 28.9529C27.3408 28.81 27.3088 28.6558 27.3088 28.5C27.3088 28.3442 27.3408 28.1901 27.4027 28.0471C27.4646 27.9042 27.5551 27.7754 27.6687 27.6688L37.1687 18.1688C37.2779 18.0596 37.4074 17.973 37.5501 17.9139C37.6927 17.8549 37.8456 17.8245 37.9999 17.8245C38.1543 17.8245 38.3072 17.8549 38.4498 17.9139C38.5924 17.973 38.722 18.0596 38.8312 18.1688C38.9404 18.2779 39.0269 18.4075 39.086 18.5502C39.1451 18.6928 39.1755 18.8457 39.1755 19C39.1755 19.1544 39.1451 19.3073 39.086 19.4499C39.0269 19.5925 38.9404 19.7221 38.8312 19.8313L29.3312 29.3313C29.2252 29.4454 29.0964 29.536 28.9533 29.5974C28.8101 29.6587 28.6557 29.6894 28.4999 29.6875Z" fill="#95E1D3"/>
</svg>
