<svg width="57" height="57" viewBox="0 0 57 57" fill="none" xmlns="http://www.w3.org/2000/svg">
<path d="M24.5575 41.6813C24.317 41.686 24.0805 41.619 23.8782 41.4888C23.6759 41.3586 23.517 41.1711 23.4217 40.9503C23.3263 40.7294 23.2989 40.4851 23.343 40.2486C23.387 40.0121 23.5004 39.7941 23.6688 39.6223C23.8373 39.4505 24.053 39.3328 24.2886 39.2841C24.5242 39.2354 24.7689 39.258 24.9916 39.3489C25.2143 39.4398 25.4049 39.595 25.5391 39.7947C25.6733 39.9944 25.745 40.2295 25.745 40.4701C25.7451 40.7872 25.6207 41.0918 25.3987 41.3182C25.1766 41.5447 24.8746 41.6751 24.5575 41.6813Z" fill="#95E1D3"/>
<path d="M33.2738 41.6814C33.9296 41.6814 34.4613 41.1497 34.4613 40.4939C34.4613 39.8381 33.9296 39.3064 33.2738 39.3064C32.618 39.3064 32.0863 39.8381 32.0863 40.4939C32.0863 41.1497 32.618 41.6814 33.2738 41.6814Z" fill="#95E1D3"/>
<path d="M33.8912 51.015H23.1087C20.312 51.015 17.6299 49.9041 15.6523 47.9265C13.6747 45.9489 12.5637 43.2668 12.5637 40.47C12.5637 37.6733 13.6747 34.9912 15.6523 33.0136C17.6299 31.036 20.312 29.925 23.1087 29.925H33.8912C36.6879 29.925 39.3701 31.036 41.3477 33.0136C43.3252 34.9912 44.4362 37.6733 44.4362 40.47C44.4362 43.2668 43.3252 45.9489 41.3477 47.9265C39.3701 49.9041 36.6879 51.015 33.8912 51.015ZM23.1087 32.3C22.0358 32.3 20.9734 32.5114 19.9822 32.922C18.991 33.3325 18.0903 33.9343 17.3317 34.693C16.573 35.4516 15.9712 36.3523 15.5606 37.3435C15.15 38.3348 14.9387 39.3972 14.9387 40.47C14.9387 41.5429 15.15 42.6053 15.5606 43.5966C15.9712 44.5878 16.573 45.4885 17.3317 46.2471C18.0903 47.0058 18.991 47.6076 19.9822 48.0181C20.9734 48.4287 22.0358 48.64 23.1087 48.64H33.8912C36.058 48.64 38.1361 47.7793 39.6683 46.2471C41.2005 44.7149 42.0612 42.6369 42.0612 40.47C42.0612 38.3032 41.2005 36.2252 39.6683 34.693C38.1361 33.1608 36.058 32.3 33.8912 32.3H23.1087Z" fill="#95E1D3"/>
<path d="M47.5 35.7676H41.135C40.8201 35.7676 40.518 35.6424 40.2953 35.4197C40.0726 35.197 39.9475 34.895 39.9475 34.5801C39.9475 34.2651 40.0726 33.9631 40.2953 33.7404C40.518 33.5177 40.8201 33.3926 41.135 33.3926H47.5C48.6445 33.3863 49.7403 32.9289 50.5496 32.1196C51.3589 31.3104 51.8163 30.2145 51.8225 29.0701C51.8162 23.5835 49.6355 18.323 45.7582 14.4412C41.8808 10.5594 36.6228 8.37262 31.1363 8.36006H26.125C20.6343 8.36634 15.3703 10.5503 11.4878 14.4328C7.60526 18.3153 5.4213 23.5794 5.41501 29.0701C5.42125 30.2145 5.87866 31.3104 6.68794 32.1196C7.49721 32.9289 8.59304 33.3863 9.73751 33.3926H15.865C16.18 33.3926 16.482 33.5177 16.7047 33.7404C16.9274 33.9631 17.0525 34.2651 17.0525 34.5801C17.0525 34.895 16.9274 35.197 16.7047 35.4197C16.482 35.6424 16.18 35.7676 15.865 35.7676H9.61876C7.84248 35.7676 6.13894 35.0619 4.88292 33.8059C3.62689 32.5499 2.92126 30.8463 2.92126 29.0701C2.92436 26.0294 3.52753 23.0192 4.69619 20.212C5.86484 17.4049 7.57602 14.856 9.73162 12.7114C11.8872 10.5668 14.4449 8.86875 17.258 7.71451C20.0711 6.56027 23.0843 5.97256 26.125 5.98506H31.1363C37.2486 5.99761 43.1071 8.4313 47.4292 12.7534C51.7513 17.0755 54.185 22.9339 54.1975 29.0463C54.1975 30.8248 53.4927 32.5308 52.2373 33.7906C50.982 35.0504 49.2785 35.7613 47.5 35.7676Z" fill="#95E1D3"/>
<path d="M7.52881 29.2838C6.23184 29.2636 4.95045 28.9977 3.75256 28.5001C3.60745 28.4425 3.47511 28.3568 3.36312 28.2481C3.25114 28.1393 3.1617 28.0095 3.09994 27.8661C3.03817 27.7227 3.00528 27.5685 3.00316 27.4124C3.00104 27.2563 3.02972 27.1013 3.08756 26.9563C3.13989 26.81 3.22156 26.676 3.32758 26.5624C3.43359 26.4488 3.5617 26.3581 3.70405 26.2958C3.8464 26.2335 3.99997 26.201 4.15535 26.2002C4.31072 26.1995 4.46461 26.2305 4.60756 26.2913C5.54031 26.6484 6.53006 26.8335 7.52881 26.8376C9.16846 26.826 10.7618 26.2926 12.078 25.3147C13.3941 24.3368 14.3647 22.9652 14.8489 21.3986C15.3332 19.8321 15.306 18.152 14.7713 16.6019C14.2366 15.0519 13.2222 13.7124 11.8751 12.7776C11.6562 12.5864 11.5149 12.3217 11.4781 12.0334C11.4414 11.7451 11.5116 11.4533 11.6755 11.2134C11.8394 10.9734 12.0856 10.8018 12.3675 10.7312C12.6494 10.6605 12.9474 10.6957 13.2051 10.8301C14.9942 12.0406 16.3477 13.7931 17.0668 15.83C17.7859 17.867 17.8325 20.0809 17.1999 22.1463C16.5672 24.2117 15.2887 26.0197 13.5521 27.3044C11.8156 28.5892 9.7127 29.283 7.55256 29.2838H7.52881Z" fill="#95E1D3"/>
<path d="M52.8676 29.2364C49.1563 28.9556 45.6871 27.2865 43.1517 24.5618C40.6163 21.8371 39.2008 18.257 39.1876 14.5351C39.1826 12.7402 39.5128 10.9601 40.1613 9.28638C40.2189 9.14126 40.3045 9.00892 40.4133 8.89694C40.5221 8.78495 40.6519 8.69552 40.7953 8.63375C40.9387 8.57198 41.0928 8.5391 41.2489 8.53698C41.405 8.53485 41.56 8.56353 41.7051 8.62138C41.8514 8.6737 41.9854 8.75538 42.099 8.86139C42.2126 8.9674 42.3033 9.09552 42.3656 9.23786C42.4279 9.38021 42.4604 9.53379 42.4612 9.68916C42.4619 9.84453 42.4309 9.99842 42.3701 10.1414C41.7078 11.9318 41.4687 13.8512 41.6717 15.7494C41.8746 17.6476 42.5139 19.4731 43.5397 21.0831C44.5655 22.6931 45.9499 24.0439 47.5846 25.0298C49.2193 26.0158 51.06 26.6101 52.9626 26.7664C53.2775 26.7664 53.5795 26.8915 53.8022 27.1142C54.0249 27.3369 54.1501 27.6389 54.1501 27.9539C54.1501 28.2688 54.0249 28.5709 53.8022 28.7936C53.5795 29.0163 53.2775 29.1414 52.9626 29.1414L52.8676 29.2364Z" fill="#95E1D3"/>
</svg>
