<svg width="57" height="57" viewBox="0 0 57 57" fill="none" xmlns="http://www.w3.org/2000/svg">
<path d="M41.5625 49.875H15.4375C13.2329 49.875 11.1186 48.9992 9.55968 47.4403C8.00078 45.8814 7.125 43.7671 7.125 41.5625V15.4375C7.125 13.2329 8.00078 11.1186 9.55968 9.55968C11.1186 8.00078 13.2329 7.125 15.4375 7.125H41.5625C43.7671 7.125 45.8814 8.00078 47.4403 9.55968C48.9992 11.1186 49.875 13.2329 49.875 15.4375V41.5625C49.875 43.7671 48.9992 45.8814 47.4403 47.4403C45.8814 48.9992 43.7671 49.875 41.5625 49.875ZM15.4375 9.5C13.8628 9.5 12.3526 10.1256 11.2391 11.2391C10.1256 12.3526 9.5 13.8628 9.5 15.4375V41.5625C9.5 43.1372 10.1256 44.6474 11.2391 45.7609C12.3526 46.8744 13.8628 47.5 15.4375 47.5H41.5625C43.1372 47.5 44.6474 46.8744 45.7609 45.7609C46.8744 44.6474 47.5 43.1372 47.5 41.5625V15.4375C47.5 13.8628 46.8744 12.3526 45.7609 11.2391C44.6474 10.1256 43.1372 9.5 41.5625 9.5H15.4375Z" fill="#95E1D3"/>
<path d="M8.31249 39.9238C8.13947 39.9257 7.9683 39.8882 7.81193 39.8141C7.65557 39.7401 7.51811 39.6314 7.40999 39.4963C7.30813 39.3787 7.23089 39.2419 7.18282 39.094C7.13474 38.946 7.11682 38.79 7.13011 38.635C7.14339 38.48 7.18761 38.3292 7.26016 38.1916C7.33271 38.054 7.43211 37.9323 7.55249 37.8338L18.715 28.5001C20.4079 27.0962 22.5881 26.4204 24.7782 26.6208C26.9684 26.8211 28.9898 27.8811 30.4 29.5688L33.06 32.7513C33.565 33.3598 34.1868 33.8608 34.8888 34.2247C35.5908 34.5887 36.3587 34.8081 37.147 34.8701C37.9353 34.9321 38.728 34.8354 39.4783 34.5857C40.2285 34.336 40.9211 33.9384 41.515 33.4163L47.9037 27.8351C48.1448 27.6312 48.456 27.5295 48.771 27.5516C49.086 27.5738 49.3798 27.7181 49.59 27.9538C49.6932 28.0699 49.7722 28.2055 49.8222 28.3525C49.8722 28.4996 49.8922 28.6552 49.8812 28.8101C49.8701 28.965 49.8281 29.1162 49.7577 29.2547C49.6873 29.3931 49.5899 29.5161 49.4712 29.6163L43.0825 35.1976C42.2499 35.9334 41.2778 36.4944 40.2241 36.8471C39.1704 37.1998 38.0565 37.337 36.9487 37.2506C35.8409 37.1642 34.7618 36.8559 33.7755 36.3441C32.7892 35.8323 31.9159 35.1274 31.2075 34.2713L28.5 31.1601C28.0029 30.5622 27.3929 30.0682 26.7047 29.7064C26.0165 29.3445 25.2637 29.122 24.4895 29.0514C23.7152 28.9808 22.9346 29.0636 22.1923 29.295C21.45 29.5264 20.7607 29.9019 20.1637 30.4001L9.00124 39.6626C8.80214 39.8151 8.56268 39.906 8.31249 39.9238Z" fill="#95E1D3"/>
</svg>
