<svg width="57" height="57" viewBox="0 0 57 57" fill="none" xmlns="http://www.w3.org/2000/svg">
<path d="M9.50006 48.6875C9.25432 48.6863 9.01451 48.6119 8.81131 48.4737C8.63709 48.376 8.49096 48.2351 8.38697 48.0646C8.28298 47.894 8.22464 47.6996 8.21756 47.5V14.25C8.21586 14.0087 8.28768 13.7727 8.42344 13.5733C8.55921 13.3739 8.75249 13.2205 8.97756 13.1337L21.1138 8.3837C21.3907 8.28779 21.6919 8.28779 21.9688 8.3837L33.4876 12.8962L47.2388 8.3837C47.4161 8.31627 47.6078 8.29614 47.7952 8.32529C47.9826 8.35444 48.1592 8.43186 48.3076 8.54995C48.4579 8.65786 48.5797 8.80074 48.6625 8.96625C48.7452 9.13177 48.7864 9.31494 48.7826 9.49995V42.75C48.7843 42.9977 48.707 43.2396 48.5617 43.4404C48.4165 43.6412 48.211 43.7904 47.9751 43.8662L33.7251 48.6162C33.4642 48.7105 33.1785 48.7105 32.9176 48.6162L21.5176 44.1275L9.83256 48.6162C9.72516 48.6538 9.61345 48.6778 9.50006 48.6875ZM21.6126 41.5625C21.7609 41.5271 21.9155 41.5271 22.0638 41.5625L33.2501 46.2412L46.3838 41.8V11.1387L33.7963 15.2712C33.5354 15.3655 33.2497 15.3655 32.9888 15.2712L21.5176 10.7825L10.5926 14.9625V45.8375L21.1138 41.8237C21.2299 41.7312 21.3699 41.6735 21.5176 41.6575L21.6126 41.5625Z" fill="#95E1D3"/>
<path d="M21.5176 44.0325C21.2026 44.0325 20.9006 43.9074 20.6779 43.6847C20.4552 43.462 20.3301 43.1599 20.3301 42.845V9.5C20.3301 9.18506 20.4552 8.88301 20.6779 8.66031C20.9006 8.43761 21.2026 8.3125 21.5176 8.3125C21.8325 8.3125 22.1346 8.43761 22.3573 8.66031C22.58 8.88301 22.7051 9.18506 22.7051 9.5V42.75C22.7182 42.9137 22.6972 43.0784 22.6435 43.2337C22.5897 43.3889 22.5043 43.5313 22.3927 43.6518C22.2811 43.7723 22.1457 43.8684 21.9951 43.9339C21.8444 43.9995 21.6818 44.033 21.5176 44.0325Z" fill="#95E1D3"/>
<path d="M33.4639 48.6875C33.1489 48.6875 32.8469 48.5624 32.6242 48.3397C32.4015 48.117 32.2764 47.8149 32.2764 47.5V14.25C32.2764 13.9351 32.4015 13.633 32.6242 13.4103C32.8469 13.1876 33.1489 13.0625 33.4639 13.0625C33.7788 13.0625 34.0809 13.1876 34.3036 13.4103C34.5263 13.633 34.6514 13.9351 34.6514 14.25V47.5C34.6514 47.8149 34.5263 48.117 34.3036 48.3397C34.0809 48.5624 33.7788 48.6875 33.4639 48.6875Z" fill="#95E1D3"/>
</svg>
