<svg xmlns="http://www.w3.org/2000/svg" width="68" height="69" viewBox="0 0 68 69" fill="none">
<rect x="0.124146" y="0.255371" width="67.8621" height="67.8621" fill="#95E1D3"/>
<path d="M32.761 30.3514V33.2554H23.017V30.3514H26.425V23.0794C26.233 23.3194 25.905 23.5754 25.441 23.8474C24.993 24.1194 24.497 24.3514 23.953 24.5434C23.425 24.7354 22.953 24.8314 22.537 24.8314V21.8314C22.825 21.8314 23.169 21.7434 23.569 21.5674C23.985 21.3754 24.393 21.1514 24.793 20.8954C25.209 20.6394 25.561 20.3914 25.849 20.1514C26.153 19.8954 26.345 19.6954 26.425 19.5514H29.713V30.3514H32.761ZM39.6283 36.8314C38.3963 36.8314 37.2843 36.5674 36.2923 36.0394C35.3003 35.5114 34.5483 34.7914 34.0363 33.8794L35.8843 31.9594C36.3323 32.5834 36.8923 33.0794 37.5643 33.4474C38.2363 33.8154 38.9323 33.9994 39.6523 33.9994C40.5163 33.9994 41.2203 33.7354 41.7643 33.2074C42.3243 32.6794 42.6043 31.9914 42.6043 31.1434C42.6043 30.3114 42.3403 29.6394 41.8123 29.1274C41.2843 28.6154 40.6283 28.3594 39.8443 28.3594C39.3163 28.3594 38.8203 28.4794 38.3563 28.7194C37.9083 28.9434 37.5483 29.2714 37.2763 29.7034H34.4683L36.4363 19.5514H44.8363V22.4794H38.7643L38.0683 26.2954C38.2603 26.1034 38.5403 25.9434 38.9083 25.8154C39.2923 25.6714 39.7563 25.5994 40.3003 25.5994C41.3723 25.5994 42.3243 25.8314 43.1563 26.2954C44.0043 26.7594 44.6683 27.4074 45.1483 28.2394C45.6443 29.0554 45.8923 29.9994 45.8923 31.0714C45.8923 32.2234 45.6203 33.2314 45.0763 34.0954C44.5323 34.9594 43.7883 35.6314 42.8443 36.1114C41.9003 36.5914 40.8283 36.8314 39.6283 36.8314ZM21.0237 51.7714C21.201 51.8927 21.4437 52.0094 21.7517 52.1214C22.069 52.224 22.4424 52.2754 22.8717 52.2754C23.4597 52.2754 23.903 52.1494 24.2017 51.8974C24.5097 51.636 24.715 51.2394 24.8177 50.7074C24.9297 50.1754 24.9857 49.4894 24.9857 48.6494V43.3154H26.2457V48.3694C26.2457 49.1067 26.2084 49.7834 26.1337 50.3994C26.059 51.0154 25.9097 51.552 25.6857 52.0094C25.4617 52.4574 25.1257 52.8027 24.6777 53.0454C24.239 53.288 23.651 53.4094 22.9137 53.4094C22.447 53.4094 22.0364 53.358 21.6817 53.2554C21.327 53.1527 21.0004 52.9987 20.7017 52.7934L21.0237 51.7714ZM31.5426 43.3154H32.6066L36.6666 53.2554H35.3226L34.1466 50.3434H29.9746L28.8126 53.2554H27.4686L31.5426 43.3154ZM33.8666 49.3634L32.0746 44.7714L30.2266 49.3634H33.8666ZM39.2532 45.6394V53.2554H37.9932V43.3154H39.0572L45.1332 51.0854V43.3294H46.3932V53.2554H45.2452L39.2532 45.6394Z" fill="white"/>
</svg>