<svg xmlns="http://www.w3.org/2000/svg" width="68" height="69" fill="none" viewBox="0 0 68 69"><path fill="#95e1d3" d="M.124.255h67.862v67.862H.124Z"/><path fill="#fff" d="M32.761 30.351v2.904h-9.744v-2.904h3.408V23.08q-.288.36-.984.768a8 8 0 0 1-1.488.696q-.792.288-1.416.288v-3q.432 0 1.032-.264.624-.288 1.224-.672a9 9 0 0 0 1.056-.744q.456-.384.576-.6h3.288v10.8Zm6.867 6.48q-1.848 0-3.336-.792t-2.256-2.16l1.848-1.92a5 5 0 0 0 1.68 1.488 4.3 4.3 0 0 0 2.088.552q1.296 0 2.112-.792.84-.792.84-2.064 0-1.248-.792-2.016t-1.968-.768q-.792 0-1.488.36a2.66 2.66 0 0 0-1.08.984h-2.808l1.968-10.152h8.4v2.928h-6.072l-.696 3.816q.288-.288.84-.48.576-.216 1.392-.216 1.608 0 2.856.696a5.06 5.06 0 0 1 1.992 1.944q.744 1.224.744 2.832 0 1.728-.816 3.024a5.56 5.56 0 0 1-2.232 2.016q-1.416.72-3.216.72m-18.604 14.94q.266.183.728.35.475.154 1.12.154.882 0 1.33-.378.462-.392.616-1.19.168-.798.168-2.058v-5.334h1.26v5.054q0 1.107-.112 2.03-.112.924-.448 1.61a2.35 2.35 0 0 1-1.008 1.036q-.659.364-1.764.364-.7 0-1.232-.154a3.4 3.4 0 0 1-.98-.462Zm10.519-8.456h1.064l4.06 9.94h-1.344l-1.176-2.912h-4.172l-1.162 2.912h-1.344Zm2.324 6.048-1.792-4.592-1.848 4.592Zm5.386-3.724v7.616h-1.26v-9.94h1.064l6.076 7.77V43.33h1.26v9.926h-1.148Z"/></svg>