<svg xmlns="http://www.w3.org/2000/svg" width="37" height="37" fill="none" viewBox="0 0 37 37"><path fill="#95e1d3" d="M18.253 33.903c-3.043 0-6.017-.898-8.547-2.581a15.33 15.33 0 0 1-5.666-6.873 15.25 15.25 0 0 1-.875-8.848c.593-2.971 2.058-5.7 4.21-7.842a15.4 15.4 0 0 1 7.877-4.191 15.45 15.45 0 0 1 8.888.871 15.37 15.37 0 0 1 6.904 5.64 15.27 15.27 0 0 1 2.593 8.508 15.3 15.3 0 0 1-4.51 10.825 15.43 15.43 0 0 1-10.874 4.49m0-29.144c-2.748 0-5.434.81-7.718 2.33a13.84 13.84 0 0 0-5.116 6.206 13.77 13.77 0 0 0-.79 7.99 13.8 13.8 0 0 0 3.802 7.08 13.9 13.9 0 0 0 7.113 3.785 13.95 13.95 0 0 0 8.026-.787 13.9 13.9 0 0 0 6.234-5.093 13.8 13.8 0 0 0 2.341-7.683 13.83 13.83 0 0 0-4.077-9.77 13.95 13.95 0 0 0-9.814-4.06"/><path fill="#95e1d3" d="M12.448 24.53c-.811 0-1.604-.24-2.28-.689a4.1 4.1 0 0 1-1.511-1.833 4.07 4.07 0 0 1 .89-4.452 4.121 4.121 0 0 1 4.472-.886 4.1 4.1 0 0 1 1.842 1.505 4.07 4.07 0 0 1-.51 5.158 4.1 4.1 0 0 1-2.901 1.197m0-6.685a2.6 2.6 0 0 0-1.458.444 2.6 2.6 0 0 0-1.096 2.69c.107.507.363.97.736 1.33a2.615 2.615 0 0 0 2.87.515 2.6 2.6 0 0 0 1.156-.99c.278-.437.418-.946.404-1.463a2.6 2.6 0 0 0-.77-1.834 2.63 2.63 0 0 0-1.842-.766Z"/><path fill="#95e1d3" d="M24.057 24.53c-.812 0-1.605-.24-2.28-.689a4.1 4.1 0 0 1-1.511-1.833 4.07 4.07 0 0 1 .89-4.452 4.121 4.121 0 0 1 4.472-.886 4.1 4.1 0 0 1 1.842 1.505 4.07 4.07 0 0 1-.51 5.158 4.11 4.11 0 0 1-2.902 1.197m0-6.685a2.6 2.6 0 0 0-1.45.438 2.6 2.6 0 0 0-1.11 2.669c.1.504.348.967.713 1.331a2.615 2.615 0 0 0 2.846.563 2.592 2.592 0 0 0 1.612-2.402 2.6 2.6 0 0 0-.738-1.886 2.6 2.6 0 0 0-1.873-.787ZM3.958 16.152a.75.75 0 0 1-.731-.594.755.755 0 0 1 .582-.876c.164-.03 16.309-3.521 20.65-9.463a.745.745 0 0 1 1.338.323.76.76 0 0 1-.129.553C20.983 12.499 4.824 15.99 4.122 16.138Z"/><path fill="#95e1d3" d="M28.697 13.686a30.2 30.2 0 0 1-10.743-2.362.747.747 0 0 1-.388-.98.747.747 0 0 1 .985-.386c.075 0 7.073 3.104 12.952 2.005a.764.764 0 0 1 .88.594.74.74 0 0 1-.597.861 16 16 0 0 1-3.089.267"/><path fill="#95e1d3" d="M20.7 21.113h-4.894a.75.75 0 0 1-.746-.743.756.756 0 0 1 .746-.743H20.7a.763.763 0 0 1 .746.743.74.74 0 0 1-.746.743M9.091 21.113H3.734a.75.75 0 0 1-.746-.743.756.756 0 0 1 .746-.743h5.357a.75.75 0 0 1 .746.743.74.74 0 0 1-.746.743M32.786 21.113h-5.372a.75.75 0 0 1-.746-.743.74.74 0 0 1 .746-.743h5.372a.75.75 0 0 1 .746.743.74.74 0 0 1-.746.743"/></svg>