<svg xmlns="http://www.w3.org/2000/svg" width="42" height="42" fill="none" viewBox="0 0 42 42"><g clip-path="url(#clip0_12901_288)"><path fill="#f9efcf" d="M0 0h42v42H0Z"/><path fill="#f38281" d="M21.003 36.822c-4.305 0-4.812-.023-6.492-.097a11.5 11.5 0 0 1-3.824-.788 8.08 8.08 0 0 1-4.603-4.604 11.5 11.5 0 0 1-.733-3.827c-.098-1.676-.098-2.226-.098-6.497 0-4.318.023-4.822.098-6.493.027-1.306.274-2.599.734-3.822a8.07 8.07 0 0 1 4.608-4.606 11.4 11.4 0 0 1 3.822-.735c1.67-.094 2.22-.094 6.488-.094 4.34 0 4.84.022 6.493.094 1.309.025 2.607.273 3.832.735a8.08 8.08 0 0 1 4.608 4.606c.467 1.243.718 2.555.737 3.88.098 1.676.098 2.224.098 6.494s-.025 4.83-.098 6.487a11.6 11.6 0 0 1-.735 3.83 8.1 8.1 0 0 1-4.61 4.606 11.6 11.6 0 0 1-3.825.733c-1.671.098-2.22.098-6.5.098m-.06-28.793c-4.28 0-4.724.02-6.395.096a8.7 8.7 0 0 0-2.923.544 5.23 5.23 0 0 0-3.007 2.996 8.8 8.8 0 0 0-.544 2.952c-.092 1.696-.092 2.14-.092 6.392 0 4.2.015 4.709.092 6.394.016.998.2 1.986.545 2.923a5.24 5.24 0 0 0 3.008 2.994 8.6 8.6 0 0 0 2.92.544c1.695.098 2.14.098 6.397.098 4.293 0 4.737-.02 6.394-.098a8.7 8.7 0 0 0 2.922-.544 5.25 5.25 0 0 0 2.992-2.99 8.8 8.8 0 0 0 .546-2.955h.02c.074-1.673.074-2.12.074-6.394 0-4.276-.02-4.725-.094-6.397a8.9 8.9 0 0 0-.544-2.919 5.25 5.25 0 0 0-2.992-2.996 8.7 8.7 0 0 0-2.922-.544c-1.694-.096-2.137-.096-6.396-.096m.06 21.063A8.09 8.09 0 1 1 29.088 21a8.1 8.1 0 0 1-8.085 8.092m0-13.346a5.25 5.25 0 1 0 5.25 5.25 5.26 5.26 0 0 0-5.25-5.25m8.4-1.247a1.89 1.89 0 0 1-1.88-1.893 1.886 1.886 0 1 1 1.88 1.893"/></g><defs><clipPath id="clip0_12901_288"><path fill="#fff" d="M0 0h42v42H0Z"/></clipPath></defs></svg>