<svg xmlns="http://www.w3.org/2000/svg" width="42" height="42" fill="none" viewBox="0 0 42 42"><g clip-path="url(#clip0_12901_292)"><path fill="#f9efcf" d="M0 0h42v42H0Z"/><path fill="#f38281" d="M18.673 26.42c-.886 4.77-1.964 9.345-5.163 11.734-.985-7.21 1.45-12.627 2.581-18.376-1.928-3.342.233-10.07 4.3-8.414 5.005 2.041-4.335 12.429 1.936 13.728 6.546 1.354 9.22-11.696 5.16-15.941-5.866-6.127-17.075-.139-15.696 8.634.336 2.146 2.487 2.797.86 5.758-3.754-.86-4.874-3.908-4.729-7.973C8.153 8.92 13.727 4.26 19.317 3.617c7.07-.815 13.704 2.672 14.619 9.52 1.032 7.728-3.19 16.1-10.749 15.497-2.049-.163-2.91-1.208-4.515-2.214"/></g><defs><clipPath id="clip0_12901_292"><path fill="#fff" d="M0 0h42v42H0Z"/></clipPath></defs></svg>