<svg xmlns="http://www.w3.org/2000/svg" width="42" height="42" fill="none" viewBox="0 0 42 42"><g clip-path="url(#clip0_12901_295)"><path fill="#f9efcf" d="M0 0h42v42H0Z"/><path fill="#f38281" d="M34.991 11.704a7.53 7.53 0 0 0 3.302-4.155 15 15 0 0 1-4.769 1.822 7.525 7.525 0 0 0-12.803 6.851A21.32 21.32 0 0 1 5.245 8.375a7.525 7.525 0 0 0 2.324 10.028 7.5 7.5 0 0 1-3.4-.941v.095a7.515 7.515 0 0 0 6.025 7.364 7.5 7.5 0 0 1-3.392.13 7.525 7.525 0 0 0 7.016 5.215 15.07 15.07 0 0 1-9.327 3.215q-.9-.003-1.793-.105A21.26 21.26 0 0 0 14.21 36.75a21.22 21.22 0 0 0 21.368-21.37q0-.488-.023-.97a15.3 15.3 0 0 0 3.749-3.888 15 15 0 0 1-4.312 1.183"/></g><defs><clipPath id="clip0_12901_295"><path fill="#fff" d="M0 0h42v42H0Z"/></clipPath></defs></svg>