<svg xmlns="http://www.w3.org/2000/svg" width="42" height="42" fill="none" viewBox="0 0 42 42"><path fill="#95e1d3" d="M21 41.98a5 5 0 0 1-3.83-1.774l-1.775-2.017a3.04 3.04 0 0 0-2.46-1.069l-2.7.242a5.04 5.04 0 0 1-5.443-5.424l.08-2.762a3 3 0 0 0-1.068-2.54L1.786 24.88a5.02 5.02 0 0 1 0-7.682l2.016-1.774a3.05 3.05 0 0 0 1.068-2.5l-.2-2.763a5.042 5.042 0 0 1 5.423-5.444l2.72.141a3 3 0 0 0 2.54-.988l1.755-2.016A5.02 5.02 0 0 1 23.111.463a5 5 0 0 1 1.719 1.311l1.775 2.017a3.09 3.09 0 0 0 2.46 1.069l2.7-.243a5.04 5.04 0 0 1 5.443 5.424l-.08 2.763a3 3 0 0 0 1.069 2.54l2.016 1.754a5.02 5.02 0 0 1 0 7.682l-2.016 1.775a3.04 3.04 0 0 0-1.069 2.5l.242 2.722a5.042 5.042 0 0 1-5.423 5.444l-2.762-.1a3.02 3.02 0 0 0-2.54 1.069l-1.754 2.016A5.02 5.02 0 0 1 21.06 42Zm-7.863-6.876a5 5 0 0 1 3.83 1.774l1.775 2.017a2.96 2.96 0 0 0 2.298 1.069 3.1 3.1 0 0 0 2.318-1.069l1.755-2.017a4.92 4.92 0 0 1 4.234-1.774l2.721.202a2.96 2.96 0 0 0 2.379-.867 3.04 3.04 0 0 0 .867-2.4l-.202-2.762a4.98 4.98 0 0 1 1.734-4.254l2.016-1.775a2.96 2.96 0 0 0 1.109-2.258 3.1 3.1 0 0 0-1.069-2.319l-2.016-1.754a4.94 4.94 0 0 1-1.774-4.275l.202-2.722a2.986 2.986 0 0 0-1.97-3.078 3 3 0 0 0-1.295-.168l-2.763.202a4.92 4.92 0 0 1-4.254-1.734l-1.774-2.017A2.96 2.96 0 0 0 21 2.016a3.1 3.1 0 0 0-2.318 1.069l-1.754 2.016a4.96 4.96 0 0 1-4.274 1.774l-2.722-.201a2.98 2.98 0 0 0-2.379.867 3.05 3.05 0 0 0-.867 2.46l.202 2.702a4.98 4.98 0 0 1-1.734 4.255l-2.016 1.774a2.96 2.96 0 0 0-1.109 2.258 3.1 3.1 0 0 0 1.069 2.319l2.016 1.754a4.94 4.94 0 0 1 1.774 4.275l-.202 2.721a2.985 2.985 0 0 0 1.97 3.078c.415.15.857.208 1.296.169l2.762-.202Z"/><path fill="#95e1d3" d="M21 28.047A7.055 7.055 0 0 1 16.01 16a7.056 7.056 0 1 1 9.979 9.98A7.06 7.06 0 0 1 21 28.047m0-12.098A5.04 5.04 0 1 0 21.000216447554685 26.03 5.04 5.04 0 0 0 21 15.949"/></svg>